  0
SECTION
  2
HEADER
  9
$ACADVER
  1
AC1014
  9
$HANDSEED
  5
FFFF
  9
$MEASUREMENT
 70
     1
  0
ENDSEC
  0
SECTION
  2
TABLES
  0
TABLE
  2
VPORT
  5
8
330
0
100
AcDbSymbolTable
 70
     4
  0
VPORT
  5
2E
330
8
100
AcDbSymbolTableRecord
100
AcDbViewportTableRecord
  2
*ACTIVE
 70
     0
 10
0.0
 20
0.0
 11
1.0
 21
1.0
 12
210.0
 22
148.5
 13
0.0
 23
0.0
 14
10.0
 24
10.0
 15
10.0
 25
10.0
 16
0.0
 26
0.0
 36
1.0
 17
0.0
 27
0.0
 37
0.0
 40
341.0
 41
1.24
 42
50.0
 43
0.0
 44
0.0
 50
0.0
 51
0.0
 71
     0
 72
   100
 73
     1
 74
     3
 75
     0
 76
     0
 77
     0
 78
     0
  0
ENDTAB
  0
TABLE
  2
LTYPE
  5
5
330
0
100
AcDbSymbolTable
 70
     1
  0
LTYPE
  5
14
330
5
100
AcDbSymbolTableRecord
100
AcDbLinetypeTableRecord
  2
BYBLOCK
 70
     0
  3

 72
    65
 73
     0
 40
0.0
  0
LTYPE
  5
15
330
5
100
AcDbSymbolTableRecord
100
AcDbLinetypeTableRecord
  2
BYLAYER
 70
     0
  3

 72
    65
 73
     0
 40
0.0
  0
LTYPE
  5
16
330
5
100
AcDbSymbolTableRecord
100
AcDbLinetypeTableRecord
  2
CONTINUOUS
 70
     0
  3
Solid line
 72
    65
 73
     0
 40
0.0
  0
ENDTAB
  0
TABLE
  2
LAYER
  5
2
100
AcDbSymbolTable
 70
1
  0
LAYER
  5
50
100
AcDbSymbolTableRecord
100
AcDbLayerTableRecord
  2
0
 70
0
  6
CONTINUOUS
  0
ENDTAB
  0
TABLE
  2
STYLE
  5
3
330
0
100
AcDbSymbolTable
 70
     1
  0
STYLE
  5
11
330
3
100
AcDbSymbolTableRecord
100
AcDbTextStyleTableRecord
  2
STANDARD
 70
     0
 40
0.0
 41
1.0
 50
0.0
 71
     0
 42
2.5
  3
txt
  4

  0
ENDTAB
  0
TABLE
  2
VIEW
  5
6
330
0
100
AcDbSymbolTable
 70
     0
  0
ENDTAB
  0
TABLE
  2
UCS
  5
7
330
0
100
AcDbSymbolTable
 70
     0
  0
ENDTAB
  0
TABLE
  2
APPID
  5
9
330
0
100
AcDbSymbolTable
 70
     2
  0
APPID
  5
12
330
9
100
AcDbSymbolTableRecord
100
AcDbRegAppTableRecord
  2
ACAD
 70
     0
  0
ENDTAB
  0
TABLE
  2
DIMSTYLE
  5
A
330
0
100
AcDbSymbolTable
 70
     1
  0
DIMSTYLE
105
27
330
A
100
AcDbSymbolTableRecord
100
AcDbDimStyleTableRecord
  2
ISO-25
 70
     0
  3

  4

  5

  6

  7

 40
1.0
 41
2.5
 42
0.625
 43
3.75
 44
1.25
 45
0.0
 46
0.0
 47
0.0
 48
0.0
140
2.5
141
2.5
142
0.0
143
0.03937007874016
144
1.0
145
0.0
146
1.0
147
0.625
 71
     0
 72
     0
 73
     0
 74
     0
 75
     0
 76
     0
 77
     1
 78
     8
170
     0
171
     3
172
     1
173
     0
174
     0
175
     0
176
     0
177
     0
178
     0
270
     2
271
     2
272
     2
273
     2
274
     3
340
11
275
     0
280
     0
281
     0
282
     0
283
     0
284
     8
285
     0
286
     0
287
     3
288
     0
  0
ENDTAB
  0
TABLE
  2
BLOCK_RECORD
  5
1
330
0
100
AcDbSymbolTable
 70
     1
  0
BLOCK_RECORD
  5
1F
330
1
100
AcDbSymbolTableRecord
100
AcDbBlockTableRecord
  2
*MODEL_SPACE
  0
BLOCK_RECORD
  5
1B
330
1
100
AcDbSymbolTableRecord
100
AcDbBlockTableRecord
  2
*PAPER_SPACE
  0
ENDTAB
  0
ENDSEC
  0
SECTION
  2
BLOCKS
  0
BLOCK
  5
20
330
1F
100
AcDbEntity
  8
0
100
AcDbBlockBegin
  2
*MODEL_SPACE
 70
     0
 10
0.0
 20
0.0
 30
0.0
  3
*MODEL_SPACE
  1

  0
ENDBLK
  5
21
330
1F
100
AcDbEntity
  8
0
100
AcDbBlockEnd
  0
BLOCK
  5
1C
330
1B
100
AcDbEntity
 67
     1
  8
0
100
AcDbBlockBegin
  2
*PAPER_SPACE
  1

  0
ENDBLK
  5
1D
330
1B
100
AcDbEntity
 67
     1
  8
0
100
AcDbBlockEnd
  0
ENDSEC
  0
SECTION
  2
ENTITIES
  0
LWPOLYLINE
  5
100
100
AcDbEntity
  8
0
 62
7
100
AcDbPolyline
 90
5
 70
0
 10
175.266188
 20
153.247124
 30
0.0
 10
175.266188
 20
191.100463
 30
0.0
 10
160.522065
 20
191.100463
 30
0.0
 10
160.522065
 20
153.247124
 30
0.0
 10
175.266188
 20
153.247124
 30
0.0
  0
LWPOLYLINE
  5
101
100
AcDbEntity
  8
0
 62
7
100
AcDbPolyline
 90
2
 70
0
 10
72.222450
 20
406.026851
 30
0.0
 10
0.000000
 20
406.026851
 30
0.0
  0
LWPOLYLINE
  5
102
100
AcDbEntity
  8
0
 62
7
100
AcDbPolyline
 90
2
 70
0
 10
72.222450
 20
395.101001
 30
0.0
 10
72.222450
 20
406.026851
 30
0.0
  0
LWPOLYLINE
  5
103
100
AcDbEntity
  8
0
 62
7
100
AcDbPolyline
 90
2
 70
0
 10
137.777550
 20
395.101001
 30
0.0
 10
72.222450
 20
395.101001
 30
0.0
  0
LWPOLYLINE
  5
104
100
AcDbEntity
  8
0
 62
7
100
AcDbPolyline
 90
2
 70
0
 10
137.777550
 20
406.026851
 30
0.0
 10
137.777550
 20
395.101001
 30
0.0
  0
LWPOLYLINE
  5
105
100
AcDbEntity
  8
0
 62
7
100
AcDbPolyline
 90
2
 70
0
 10
210.000000
 20
406.026851
 30
0.0
 10
137.777550
 20
406.026851
 30
0.0
  0
LWPOLYLINE
  5
106
100
AcDbEntity
  8
0
 62
7
100
AcDbPolyline
 90
2
 70
0
 10
210.000000
 20
6.882425
 30
0.0
 10
210.000000
 20
406.026851
 30
0.0
  0
LWPOLYLINE
  5
107
100
AcDbEntity
  8
0
 62
7
100
AcDbPolyline
 90
2
 70
0
 10
144.659975
 20
-0.000000
 30
0.0
 10
203.117575
 20
-0.000000
 30
0.0
  0
LWPOLYLINE
  5
108
100
AcDbEntity
  8
0
 62
7
100
AcDbPolyline
 90
2
 70
0
 10
137.777550
 20
122.167435
 30
0.0
 10
137.777550
 20
6.882425
 30
0.0
  0
LWPOLYLINE
  5
109
100
AcDbEntity
  8
0
 62
7
100
AcDbPolyline
 90
2
 70
0
 10
72.222450
 20
122.167435
 30
0.0
 10
137.777550
 20
122.167435
 30
0.0
  0
LWPOLYLINE
  5
10a
100
AcDbEntity
  8
0
 62
7
100
AcDbPolyline
 90
2
 70
0
 10
72.222450
 20
6.882425
 30
0.0
 10
72.222450
 20
122.167435
 30
0.0
  0
LWPOLYLINE
  5
10b
100
AcDbEntity
  8
0
 62
7
100
AcDbPolyline
 90
2
 70
0
 10
6.882425
 20
-0.000000
 30
0.0
 10
65.340025
 20
-0.000000
 30
0.0
  0
LWPOLYLINE
  5
10c
100
AcDbEntity
  8
0
 62
7
100
AcDbPolyline
 90
2
 70
0
 10
0.000000
 20
406.026851
 30
0.0
 10
0.000000
 20
6.882425
 30
0.0
  0
LWPOLYLINE
  5
10d
100
AcDbEntity
  8
0
 62
7
100
AcDbPolyline
 90
4
 70
0
 10
107.922164
 20
153.287274
 30
0.0
 10
148.636363
 20
153.287274
 30
0.0
 10
148.636363
 20
191.060314
 30
0.0
 10
107.922164
 20
191.060314
 30
0.0
  0
SPLINE
  5
10e
100
AcDbEntity
  8
0
 62
7
100
AcDbSpline
 70
0
 71
3
 72
13
 73
9
 74
7
 40
0.000000
 40
0.000000
 40
0.000000
 40
0.000000
 40
1.801646
 40
3.588383
 40
5.390029
 40
7.191675
 40
8.978412
 40
10.780058
 40
10.780058
 40
10.780058
 40
10.780058
 10
203.117575
 20
-0.000000
 30
0.0
 10
203.719878
 20
0.045880
 30
0.0
 10
204.919500
 20
0.137260
 30
0.0
 10
206.597719
 20
0.859400
 30
0.0
 10
208.041936
 20
1.958064
 30
0.0
 10
209.140600
 20
3.402281
 30
0.0
 10
209.862740
 20
5.080499
 30
0.0
 10
209.954120
 20
6.280122
 30
0.0
 10
210.000000
 20
6.882425
 30
0.0
 11
203.117575
 21
-0.000000
 31
0.0
 11
204.903724
 21
0.235795
 31
0.0
 11
206.554453
 21
0.919550
 31
0.0
 11
207.984184
 21
2.015816
 31
0.0
 11
209.080450
 21
3.445546
 31
0.0
 11
209.764204
 21
5.096276
 31
0.0
 11
210.000000
 21
6.882425
 31
0.0
  0
SPLINE
  5
10f
100
AcDbEntity
  8
0
 62
7
100
AcDbSpline
 70
0
 71
3
 72
13
 73
9
 74
7
 40
0.000000
 40
0.000000
 40
0.000000
 40
0.000000
 40
1.801646
 40
3.588383
 40
5.390029
 40
7.191675
 40
8.978412
 40
10.780058
 40
10.780058
 40
10.780058
 40
10.780058
 10
137.777550
 20
6.882425
 30
0.0
 10
137.823430
 20
6.280122
 30
0.0
 10
137.914810
 20
5.080499
 30
0.0
 10
138.636950
 20
3.402281
 30
0.0
 10
139.735615
 20
1.958064
 30
0.0
 10
141.179831
 20
0.859400
 30
0.0
 10
142.858050
 20
0.137260
 30
0.0
 10
144.057672
 20
0.045880
 30
0.0
 10
144.659975
 20
-0.000000
 30
0.0
 11
137.777550
 21
6.882425
 31
0.0
 11
138.013346
 21
5.096276
 31
0.0
 11
138.697100
 21
3.445546
 31
0.0
 11
139.793366
 21
2.015816
 31
0.0
 11
141.223097
 21
0.919550
 31
0.0
 11
142.873826
 21
0.235795
 31
0.0
 11
144.659975
 21
-0.000000
 31
0.0
  0
SPLINE
  5
110
100
AcDbEntity
  8
0
 62
7
100
AcDbSpline
 70
0
 71
3
 72
13
 73
9
 74
7
 40
0.000000
 40
0.000000
 40
0.000000
 40
0.000000
 40
1.801646
 40
3.588383
 40
5.390029
 40
7.191675
 40
8.978412
 40
10.780058
 40
10.780058
 40
10.780058
 40
10.780058
 10
65.340025
 20
-0.000000
 30
0.0
 10
65.942328
 20
0.045880
 30
0.0
 10
67.141950
 20
0.137260
 30
0.0
 10
68.820169
 20
0.859400
 30
0.0
 10
70.264385
 20
1.958064
 30
0.0
 10
71.363050
 20
3.402281
 30
0.0
 10
72.085190
 20
5.080499
 30
0.0
 10
72.176570
 20
6.280122
 30
0.0
 10
72.222450
 20
6.882425
 30
0.0
 11
65.340025
 21
-0.000000
 31
0.0
 11
67.126174
 21
0.235795
 31
0.0
 11
68.776903
 21
0.919550
 31
0.0
 11
70.206634
 21
2.015816
 31
0.0
 11
71.302900
 21
3.445546
 31
0.0
 11
71.986654
 21
5.096276
 31
0.0
 11
72.222450
 21
6.882425
 31
0.0
  0
SPLINE
  5
111
100
AcDbEntity
  8
0
 62
7
100
AcDbSpline
 70
0
 71
3
 72
13
 73
9
 74
7
 40
0.000000
 40
0.000000
 40
0.000000
 40
0.000000
 40
1.801646
 40
3.588383
 40
5.390029
 40
7.191675
 40
8.978412
 40
10.780058
 40
10.780058
 40
10.780058
 40
10.780058
 10
0.000000
 20
6.882425
 30
0.0
 10
0.045880
 20
6.280122
 30
0.0
 10
0.137260
 20
5.080499
 30
0.0
 10
0.859400
 20
3.402281
 30
0.0
 10
1.958064
 20
1.958064
 30
0.0
 10
3.402281
 20
0.859400
 30
0.0
 10
5.080499
 20
0.137260
 30
0.0
 10
6.280122
 20
0.045880
 30
0.0
 10
6.882425
 20
-0.000000
 30
0.0
 11
0.000000
 21
6.882425
 31
0.0
 11
0.235796
 21
5.096276
 31
0.0
 11
0.919550
 21
3.445546
 31
0.0
 11
2.015816
 21
2.015816
 31
0.0
 11
3.445546
 21
0.919550
 31
0.0
 11
5.096276
 21
0.235795
 31
0.0
 11
6.882425
 21
-0.000000
 31
0.0
  0
LWPOLYLINE
  5
112
100
AcDbEntity
  8
0
 62
7
100
AcDbPolyline
 90
2
 70
0
 10
107.882015
 20
191.100463
 30
0.0
 10
107.882015
 20
153.247124
 30
0.0
  0
ENDSEC
  0
SECTION
  2
OBJECTS
  0
DICTIONARY
  5
C
330
0
100
AcDbDictionary
  3
ACAD_GROUP
350
D
  3
ACAD_MLINESTYLE
350
17
  0
DICTIONARY
  5
D
330
C
100
AcDbDictionary
  0
DICTIONARY
  5
1A
330
C
100
AcDbDictionary
  0
DICTIONARY
  5
17
330
C
100
AcDbDictionary
  3
STANDARD
350
18
  0
DICTIONARY
  5
19
330
C
100
AcDbDictionary
  0
ENDSEC
  0
EOF
