  0
SECTION
  2
HEADER
  9
$ACADVER
  1
AC1009
  9
$DWGCODEPAGE
  3
ansi_1252
  9
$INSBASE
 10
0.0
 20
0.0
 30
0.0
  9
$EXTMIN
 10
-8.329799585
 20
-4.8757884561
 30
0.0
  9
$EXTMAX
 10
6.851700449
 20
8.0656584791
 30
0.0
  9
$LIMMIN
 10
0.0
 20
0.0
  9
$LIMMAX
 10
420.0
 20
297.0
  9
$ORTHOMODE
 70
     0
  9
$REGENMODE
 70
     1
  9
$FILLMODE
 70
     1
  9
$QTEXTMODE
 70
     0
  9
$MIRRTEXT
 70
     1
  9
$DRAGMODE
 70
     2
  9
$LTSCALE
 40
1.0
  9
$OSMODE
 70
    37
  9
$ATTMODE
 70
     1
  9
$TEXTSIZE
 40
0.3175
  9
$TRACEWID
 40
1.0
  9
$TEXTSTYLE
  7
STANDARD
  9
$CLAYER
  8
0
  9
$CELTYPE
  6
BYLAYER
  9
$CECOLOR
 62
   256
  9
$DIMSCALE
 40
1.0
  9
$DIMASZ
 40
0.3302
  9
$DIMEXO
 40
0.127
  9
$DIMDLI
 40
3.75
  9
$DIMRND
 40
0.0
  9
$DIMDLE
 40
0.0
  9
$DIMEXE
 40
0.3175
  9
$DIMTP
 40
0.0
  9
$DIMTM
 40
0.0
  9
$DIMTXT
 40
0.3175
  9
$DIMCEN
 40
2.5
  9
$DIMTSZ
 40
0.0
  9
$DIMTOL
 70
     0
  9
$DIMLIM
 70
     0
  9
$DIMTIH
 70
     1
  9
$DIMTOH
 70
     1
  9
$DIMSE1
 70
     0
  9
$DIMSE2
 70
     0
  9
$DIMTAD
 70
     0
  9
$DIMZIN
 70
     0
  9
$DIMBLK
  1

  9
$DIMASO
 70
     1
  9
$DIMSHO
 70
     1
  9
$DIMPOST
  1

  9
$DIMAPOST
  1

  9
$DIMALT
 70
     0
  9
$DIMALTD
 70
     3
  9
$DIMALTF
 40
0.3937007874
  9
$DIMLFAC
 40
1.0
  9
$DIMTOFL
 70
     1
  9
$DIMTVP
 40
0.0
  9
$DIMTIX
 70
     0
  9
$DIMSOXD
 70
     0
  9
$DIMSAH
 70
     0
  9
$DIMBLK1
  1

  9
$DIMBLK2
  1

  9
$DIMSTYLE
  2
ISO-25
  9
$DIMCLRD
 70
     0
  9
$DIMCLRE
 70
     0
  9
$DIMCLRT
 70
     0
  9
$DIMTFAC
 40
1.0
  9
$DIMGAP
 40
0.1524
  9
$LUNITS
 70
     2
  9
$LUPREC
 70
     2
  9
$SKETCHINC
 40
1.0
  9
$FILLETRAD
 40
10.0
  9
$AUNITS
 70
     0
  9
$AUPREC
 70
     2
  9
$MENU
  1
.
  9
$ELEVATION
 40
0.0
  9
$PELEVATION
 40
0.0
  9
$THICKNESS
 40
0.0
  9
$LIMCHECK
 70
     0
  9
$CHAMFERA
 40
10.0
  9
$CHAMFERB
 40
10.0
  9
$SKPOLY
 70
     0
  9
$TDCREATE
 40
2456722.676074699
  9
$TDUPDATE
 40
2456722.676074711
  9
$TDINDWG
 40
0.0000000116
  9
$TDUSRTIMER
 40
0.0000000116
  9
$USRTIMER
 70
     1
  9
$ANGBASE
 50
0.0
  9
$ANGDIR
 70
     0
  9
$PDMODE
 70
     0
  9
$PDSIZE
 40
-1.0
  9
$PLINEWID
 40
0.0
  9
$COORDS
 70
     1
  9
$SPLFRAME
 70
     0
  9
$SPLINETYPE
 70
     6
  9
$SPLINESEGS
 70
     8
  9
$ATTDIA
 70
     0
  9
$ATTREQ
 70
     1
  9
$HANDLING
 70
     1
  9
$HANDSEED
  5
53A
  9
$SURFTAB1
 70
     6
  9
$SURFTAB2
 70
     6
  9
$SURFTYPE
 70
     6
  9
$SURFU
 70
     6
  9
$SURFV
 70
     6
  9
$UCSNAME
  2

  9
$UCSORG
 10
0.0
 20
0.0
 30
0.0
  9
$UCSXDIR
 10
1.0
 20
0.0
 30
0.0
  9
$UCSYDIR
 10
0.0
 20
1.0
 30
0.0
  9
$PUCSNAME
  2

  9
$PUCSORG
 10
0.0
 20
0.0
 30
0.0
  9
$PUCSXDIR
 10
1.0
 20
0.0
 30
0.0
  9
$PUCSYDIR
 10
0.0
 20
1.0
 30
0.0
  9
$USERI1
 70
     0
  9
$USERI2
 70
     0
  9
$USERI3
 70
     0
  9
$USERI4
 70
     0
  9
$USERI5
 70
     0
  9
$USERR1
 40
0.0
  9
$USERR2
 40
0.0
  9
$USERR3
 40
0.0
  9
$USERR4
 40
0.0
  9
$USERR5
 40
0.0
  9
$WORLDVIEW
 70
     1
  9
$SHADEDGE
 70
     3
  9
$SHADEDIF
 70
    70
  9
$TILEMODE
 70
     1
  9
$MAXACTVP
 70
    64
  9
$PLIMCHECK
 70
     0
  9
$PEXTMIN
 10
1.0000000000E+20
 20
1.0000000000E+20
 30
1.0000000000E+20
  9
$PEXTMAX
 10
-1.0000000000E+20
 20
-1.0000000000E+20
 30
-1.0000000000E+20
  9
$PLIMMIN
 10
0.0
 20
0.0
  9
$PLIMMAX
 10
420.0
 20
297.0
  9
$UNITMODE
 70
     0
  9
$VISRETAIN
 70
     1
  9
$PLINEGEN
 70
     0
  9
$PSLTSCALE
 70
     1
  0
ENDSEC
  0
SECTION
  2
TABLES
  0
TABLE
  2
VPORT
 70
     1
  0
VPORT
  2
*ACTIVE
 70
     0
 10
0.0
 20
0.0
 11
1.0
 21
1.0
 12
-0.739049568
 22
1.5949350115
 13
0.0
 23
0.0
 14
10.0
 24
10.0
 15
10.0
 25
10.0
 16
0.0
 26
0.0
 36
1.0
 17
0.0
 27
0.0
 37
0.0
 40
13.2002758739
 41
1.1730913946
 42
50.0
 43
0.0
 44
0.0
 50
0.0
 51
0.0
 71
     0
 72
   100
 73
     1
 74
     3
 75
     0
 76
     0
 77
     0
 78
     0
  0
ENDTAB
  0
TABLE
  2
LTYPE
 70
     6
  0
LTYPE
  2
CONTINUOUS
 70
     0
  3
Solid line
 72
    65
 73
     0
 40
0.0
  0
LTYPE
  2
HIDDEN
 70
     0
  3
Hidden __ __ __ __ __ __ __ __ __ __ __ __ __ __
 72
    65
 73
     2
 40
0.1905
 49
0.127
 49
-0.0635
  0
LTYPE
  2
PHANTOM
 70
     0
  3
Phantom ______  __  __  ______  __  __  ______
 72
    65
 73
     6
 40
1.27
 49
0.635
 49
-0.127
 49
0.127
 49
-0.127
 49
0.127
 49
-0.127
  0
LTYPE
  2
CENTER
 70
     0
  3
Center ____ _ ____ _ ____ _ ____ _ ____ _ ____
 72
    65
 73
     4
 40
1.016
 49
0.635
 49
-0.127
 49
0.127
 49
-0.127
  0
LTYPE
  2
CENTERX2
 70
     0
  3
Center (2x) ________  __  ________  __  _____
 72
    65
 73
     4
 40
2.032
 49
1.27
 49
-0.254
 49
0.254
 49
-0.254
  0
LTYPE
  2
DOT2
 70
     0
  3
Dot (.5x) ........................................
 72
    65
 73
     2
 40
0.0635
 49
0.0
 49
-0.0635
  0
ENDTAB
  0
TABLE
  2
LAYER
 70
     1
  0
LAYER
  2
0
 70
     0
 62
     7
  6
CONTINUOUS
  0
ENDTAB
  0
TABLE
  2
STYLE
 70
     1
  0
STYLE
  2
STANDARD
 70
     0
 40
0.0
 41
1.0
 50
0.0
 71
     0
 42
2.5
  3
txt
  4

  0
ENDTAB
  0
TABLE
  2
VIEW
 70
     0
  0
ENDTAB
  0
TABLE
  2
UCS
 70
     0
  0
ENDTAB
  0
TABLE
  2
APPID
 70
     1
  0
APPID
  2
ACAD
 70
     0
  0
ENDTAB
  0
TABLE
  2
DIMSTYLE
 70
     1
  0
DIMSTYLE
  2
ISO-25
 70
     0
  3

  4

  5

  6

  7

 40
1.0
 41
2.5
 42
0.625
 43
3.75
 44
1.25
 45
0.0
 46
0.0
 47
0.0
 48
0.0
140
2.5
141
2.5
142
0.0
143
0.0393700787
144
1.0
145
0.0
146
1.0
147
0.625
 71
     0
 72
     0
 73
     0
 74
     0
 75
     0
 76
     0
 77
     1
 78
     8
170
     0
171
     3
172
     1
173
     0
174
     0
175
     0
176
     0
177
     0
178
     0
  0
ENDTAB
  0
ENDSEC
  0
SECTION
  2
BLOCKS
  0
BLOCK
  8
0
  2
$MODEL_SPACE
 70
     0
 10
0.0
 20
0.0
 30
0.0
  3
$MODEL_SPACE
  1

  0
ENDBLK
  5
21
  8
0
  0
BLOCK
 67
     1
  8
0
  2
$PAPER_SPACE
 70
     0
 10
0.0
 20
0.0
 30
0.0
  3
$PAPER_SPACE
  1

  0
ENDBLK
  5
1D
 67
     1
  8
0
  0
ENDSEC
  0
SECTION
  2
ENTITIES
  0
POLYLINE
  5
45
  8
0
  6
CONTINUOUS
 62
     7
 66
     1
 10
0.0
 20
0.0
 30
0.0
  0
VERTEX
  5
301
  8
0
  6
CONTINUOUS
 62
     7
 10
4.0364994185
 20
7.4233119627
 30
0.0
  0
VERTEX
  5
302
  8
0
  6
CONTINUOUS
 62
     7
 10
4.0340697485
 20
7.5073394787
 30
0.0
  0
VERTEX
  5
303
  8
0
  6
CONTINUOUS
 62
     7
 10
4.0320325092
 20
7.5292550119
 30
0.0
  0
VERTEX
  5
304
  8
0
  6
CONTINUOUS
 62
     7
 10
4.0268609408
 20
7.5506262886
 30
0.0
  0
VERTEX
  5
305
  8
0
  6
CONTINUOUS
 62
     7
 10
4.0118282635
 20
7.5659342384
 30
0.0
  0
VERTEX
  5
306
  8
0
  6
CONTINUOUS
 62
     7
 10
3.9799730145
 20
7.574161453
 30
0.0
  0
VERTEX
  5
307
  8
0
  6
CONTINUOUS
 62
     7
 10
3.9470858844
 20
7.5771884329
 30
0.0
  0
VERTEX
  5
308
  8
0
  6
CONTINUOUS
 62
     7
 10
3.8952409726
 20
7.5795619627
 30
0.0
  0
SEQEND
  5
309
  8
0
  6
CONTINUOUS
 62
     7
  0
POLYLINE
  5
49
  8
0
  6
CONTINUOUS
 62
     7
 66
     1
 10
0.0
 20
0.0
 30
0.0
  0
VERTEX
  5
30A
  8
0
  6
CONTINUOUS
 62
     7
 10
3.8952409726
 20
6.6606430438
 30
0.0
  0
VERTEX
  5
30B
  8
0
  6
CONTINUOUS
 62
     7
 10
3.9311143707
 20
6.662354054
 30
0.0
  0
VERTEX
  5
30C
  8
0
  6
CONTINUOUS
 62
     7
 10
3.9669425222
 20
6.6648628065
 30
0.0
  0
VERTEX
  5
30D
  8
0
  6
CONTINUOUS
 62
     7
 10
4.0022794917
 20
6.670990379
 30
0.0
  0
VERTEX
  5
30E
  8
0
  6
CONTINUOUS
 62
     7
 10
4.027818042
 20
6.6935949191
 30
0.0
  0
VERTEX
  5
30F
  8
0
  6
CONTINUOUS
 62
     7
 10
4.0357960821
 20
6.7492826916
 30
0.0
  0
VERTEX
  5
310
  8
0
  6
CONTINUOUS
 62
     7
 10
4.0371328644
 20
6.8057021654
 30
0.0
  0
SEQEND
  5
311
  8
0
  6
CONTINUOUS
 62
     7
  0
POLYLINE
  5
51
  8
0
  6
CONTINUOUS
 62
     7
 66
     1
 10
0.0
 20
0.0
 30
0.0
  0
VERTEX
  5
312
  8
0
  6
CONTINUOUS
 62
     7
 10
4.1739571888
 20
6.8168930438
 30
0.0
  0
VERTEX
  5
313
  8
0
  6
CONTINUOUS
 62
     7
 10
4.1761609058
 20
6.7329420701
 30
0.0
  0
VERTEX
  5
314
  8
0
  6
CONTINUOUS
 62
     7
 10
4.1785154615
 20
6.711077514
 30
0.0
  0
VERTEX
  5
315
  8
0
  6
CONTINUOUS
 62
     7
 10
4.1843104611
 20
6.6898922587
 30
0.0
  0
VERTEX
  5
316
  8
0
  6
CONTINUOUS
 62
     7
 10
4.1995357033
 20
6.6747757925
 30
0.0
  0
VERTEX
  5
317
  8
0
  6
CONTINUOUS
 62
     7
 10
4.2570055792
 20
6.6635485374
 30
0.0
  0
VERTEX
  5
318
  8
0
  6
CONTINUOUS
 62
     7
 10
4.3158490807
 20
6.6606430438
 30
0.0
  0
SEQEND
  5
319
  8
0
  6
CONTINUOUS
 62
     7
  0
POLYLINE
  5
55
  8
0
  6
CONTINUOUS
 62
     7
 66
     1
 10
0.0
 20
0.0
 30
0.0
  0
VERTEX
  5
31A
  8
0
  6
CONTINUOUS
 62
     7
 10
4.3158490807
 20
7.5795619627
 30
0.0
  0
VERTEX
  5
31B
  8
0
  6
CONTINUOUS
 62
     7
 10
4.239575507
 20
7.5754876346
 30
0.0
  0
VERTEX
  5
31C
  8
0
  6
CONTINUOUS
 62
     7
 10
4.2100070758
 20
7.570567134
 30
0.0
  0
VERTEX
  5
31D
  8
0
  6
CONTINUOUS
 62
     7
 10
4.1861516007
 20
7.553877062
 30
0.0
  0
VERTEX
  5
31E
  8
0
  6
CONTINUOUS
 62
     7
 10
4.1781818358
 20
7.5250722381
 30
0.0
  0
VERTEX
  5
31F
  8
0
  6
CONTINUOUS
 62
     7
 10
4.1757338535
 20
7.4951588213
 30
0.0
  0
VERTEX
  5
320
  8
0
  6
CONTINUOUS
 62
     7
 10
4.1745906347
 20
7.4480163546
 30
0.0
  0
SEQEND
  5
321
  8
0
  6
CONTINUOUS
 62
     7
  0
POLYLINE
  5
5D
  8
0
  6
CONTINUOUS
 62
     7
 66
     1
 10
0.0
 20
0.0
 30
0.0
  0
VERTEX
  5
322
  8
0
  6
CONTINUOUS
 62
     7
 10
3.0635264455
 20
7.4233119627
 30
0.0
  0
VERTEX
  5
323
  8
0
  6
CONTINUOUS
 62
     7
 10
3.0610967755
 20
7.5073394787
 30
0.0
  0
VERTEX
  5
324
  8
0
  6
CONTINUOUS
 62
     7
 10
3.0590595363
 20
7.5292550119
 30
0.0
  0
VERTEX
  5
325
  8
0
  6
CONTINUOUS
 62
     7
 10
3.0538879678
 20
7.5506262886
 30
0.0
  0
VERTEX
  5
326
  8
0
  6
CONTINUOUS
 62
     7
 10
3.0388552906
 20
7.5659342384
 30
0.0
  0
VERTEX
  5
327
  8
0
  6
CONTINUOUS
 62
     7
 10
3.0070000415
 20
7.574161453
 30
0.0
  0
VERTEX
  5
328
  8
0
  6
CONTINUOUS
 62
     7
 10
2.9741129114
 20
7.5771884329
 30
0.0
  0
VERTEX
  5
329
  8
0
  6
CONTINUOUS
 62
     7
 10
2.9222679996
 20
7.5795619627
 30
0.0
  0
SEQEND
  5
32A
  8
0
  6
CONTINUOUS
 62
     7
  0
POLYLINE
  5
61
  8
0
  6
CONTINUOUS
 62
     7
 66
     1
 10
0.0
 20
0.0
 30
0.0
  0
VERTEX
  5
32B
  8
0
  6
CONTINUOUS
 62
     7
 10
2.9222679996
 20
6.6606430438
 30
0.0
  0
VERTEX
  5
32C
  8
0
  6
CONTINUOUS
 62
     7
 10
2.9581413977
 20
6.662354054
 30
0.0
  0
VERTEX
  5
32D
  8
0
  6
CONTINUOUS
 62
     7
 10
2.9939695493
 20
6.6648628065
 30
0.0
  0
VERTEX
  5
32E
  8
0
  6
CONTINUOUS
 62
     7
 10
3.0293065187
 20
6.670990379
 30
0.0
  0
VERTEX
  5
32F
  8
0
  6
CONTINUOUS
 62
     7
 10
3.054845069
 20
6.6935949191
 30
0.0
  0
VERTEX
  5
330
  8
0
  6
CONTINUOUS
 62
     7
 10
3.0628231092
 20
6.7492826916
 30
0.0
  0
VERTEX
  5
331
  8
0
  6
CONTINUOUS
 62
     7
 10
3.0641598915
 20
6.8057021654
 30
0.0
  0
SEQEND
  5
332
  8
0
  6
CONTINUOUS
 62
     7
  0
POLYLINE
  5
69
  8
0
  6
CONTINUOUS
 62
     7
 66
     1
 10
0.0
 20
0.0
 30
0.0
  0
VERTEX
  5
333
  8
0
  6
CONTINUOUS
 62
     7
 10
3.2009842158
 20
6.8168930438
 30
0.0
  0
VERTEX
  5
334
  8
0
  6
CONTINUOUS
 62
     7
 10
3.2031879328
 20
6.7329420701
 30
0.0
  0
VERTEX
  5
335
  8
0
  6
CONTINUOUS
 62
     7
 10
3.2055424886
 20
6.711077514
 30
0.0
  0
VERTEX
  5
336
  8
0
  6
CONTINUOUS
 62
     7
 10
3.2113374881
 20
6.6898922587
 30
0.0
  0
VERTEX
  5
337
  8
0
  6
CONTINUOUS
 62
     7
 10
3.2265627303
 20
6.6747757925
 30
0.0
  0
VERTEX
  5
338
  8
0
  6
CONTINUOUS
 62
     7
 10
3.2840326062
 20
6.6635485374
 30
0.0
  0
VERTEX
  5
339
  8
0
  6
CONTINUOUS
 62
     7
 10
3.3428761077
 20
6.6606430438
 30
0.0
  0
SEQEND
  5
33A
  8
0
  6
CONTINUOUS
 62
     7
  0
POLYLINE
  5
6D
  8
0
  6
CONTINUOUS
 62
     7
 66
     1
 10
0.0
 20
0.0
 30
0.0
  0
VERTEX
  5
33B
  8
0
  6
CONTINUOUS
 62
     7
 10
3.3428761077
 20
7.5795619627
 30
0.0
  0
VERTEX
  5
33C
  8
0
  6
CONTINUOUS
 62
     7
 10
3.266602534
 20
7.5754876346
 30
0.0
  0
VERTEX
  5
33D
  8
0
  6
CONTINUOUS
 62
     7
 10
3.2370341028
 20
7.570567134
 30
0.0
  0
VERTEX
  5
33E
  8
0
  6
CONTINUOUS
 62
     7
 10
3.2131786277
 20
7.553877062
 30
0.0
  0
VERTEX
  5
33F
  8
0
  6
CONTINUOUS
 62
     7
 10
3.2052088629
 20
7.5250722381
 30
0.0
  0
VERTEX
  5
340
  8
0
  6
CONTINUOUS
 62
     7
 10
3.2027608806
 20
7.4951588213
 30
0.0
  0
VERTEX
  5
341
  8
0
  6
CONTINUOUS
 62
     7
 10
3.2016176617
 20
7.4480163546
 30
0.0
  0
SEQEND
  5
342
  8
0
  6
CONTINUOUS
 62
     7
  0
POLYLINE
  5
76
  8
0
  6
CONTINUOUS
 62
     7
 66
     1
 10
0.0
 20
0.0
 30
0.0
  0
VERTEX
  5
343
  8
0
  6
CONTINUOUS
 62
     7
 10
1.4541514455
 20
7.4228896654
 30
0.0
  0
VERTEX
  5
344
  8
0
  6
CONTINUOUS
 62
     7
 10
1.4478243202
 20
7.5476084542
 30
0.0
  0
VERTEX
  5
345
  8
0
  6
CONTINUOUS
 62
     7
 10
1.444917994
 20
7.5629267196
 30
0.0
  0
VERTEX
  5
346
  8
0
  6
CONTINUOUS
 62
     7
 10
1.4412440603
 20
7.5697474998
 30
0.0
  0
VERTEX
  5
347
  8
0
  6
CONTINUOUS
 62
     7
 10
1.4347617035
 20
7.5741926862
 30
0.0
  0
VERTEX
  5
348
  8
0
  6
CONTINUOUS
 62
     7
 10
1.4040552113
 20
7.5788233327
 30
0.0
  0
VERTEX
  5
349
  8
0
  6
CONTINUOUS
 62
     7
 10
1.3416092158
 20
7.5795619627
 30
0.0
  0
SEQEND
  5
34A
  8
0
  6
CONTINUOUS
 62
     7
  0
POLYLINE
  5
79
  8
0
  6
CONTINUOUS
 62
     7
 66
     1
 10
0.0
 20
0.0
 30
0.0
  0
VERTEX
  5
34B
  8
0
  6
CONTINUOUS
 62
     7
 10
1.3418203644
 20
6.6606430438
 30
0.0
  0
VERTEX
  5
34C
  8
0
  6
CONTINUOUS
 62
     7
 10
1.3880839587
 20
6.6637384464
 30
0.0
  0
VERTEX
  5
34D
  8
0
  6
CONTINUOUS
 62
     7
 10
1.424257504
 20
6.6675938508
 30
0.0
  0
VERTEX
  5
34E
  8
0
  6
CONTINUOUS
 62
     7
 10
1.4335758071
 20
6.6721052068
 30
0.0
  0
VERTEX
  5
34F
  8
0
  6
CONTINUOUS
 62
     7
 10
1.4410189246
 20
6.6792707989
 30
0.0
  0
VERTEX
  5
350
  8
0
  6
CONTINUOUS
 62
     7
 10
1.447948468
 20
6.6986189607
 30
0.0
  0
VERTEX
  5
351
  8
0
  6
CONTINUOUS
 62
     7
 10
1.4512650602
 20
6.7398695536
 30
0.0
  0
VERTEX
  5
352
  8
0
  6
CONTINUOUS
 62
     7
 10
1.456896378
 20
6.9053643276
 30
0.0
  0
SEQEND
  5
353
  8
0
  6
CONTINUOUS
 62
     7
  0
POLYLINE
  5
81
  8
0
  6
CONTINUOUS
 62
     7
 66
     1
 10
0.0
 20
0.0
 30
0.0
  0
VERTEX
  5
354
  8
0
  6
CONTINUOUS
 62
     7
 10
1.5785179996
 20
6.8943845979
 30
0.0
  0
VERTEX
  5
355
  8
0
  6
CONTINUOUS
 62
     7
 10
1.5840931594
 20
6.7340662526
 30
0.0
  0
VERTEX
  5
356
  8
0
  6
CONTINUOUS
 62
     7
 10
1.5878527438
 20
6.6941717112
 30
0.0
  0
VERTEX
  5
357
  8
0
  6
CONTINUOUS
 62
     7
 10
1.5963087522
 20
6.6761050783
 30
0.0
  0
VERTEX
  5
358
  8
0
  6
CONTINUOUS
 62
     7
 10
1.6041574235
 20
6.6699061931
 30
0.0
  0
VERTEX
  5
359
  8
0
  6
CONTINUOUS
 62
     7
 10
1.6136162015
 20
6.6665824018
 30
0.0
  0
VERTEX
  5
35A
  8
0
  6
CONTINUOUS
 62
     7
 10
1.6583653717
 20
6.6627834318
 30
0.0
  0
VERTEX
  5
35B
  8
0
  6
CONTINUOUS
 62
     7
 10
1.6935940131
 20
6.6606430438
 30
0.0
  0
SEQEND
  5
35C
  8
0
  6
CONTINUOUS
 62
     7
  0
POLYLINE
  5
83
  8
0
  6
CONTINUOUS
 62
     7
 66
     1
 10
0.0
 20
0.0
 30
0.0
  0
VERTEX
  5
35D
  8
0
  6
CONTINUOUS
 62
     7
 10
1.5920315131
 20
7.6652883141
 30
0.0
  0
VERTEX
  5
35E
  8
0
  6
CONTINUOUS
 62
     7
 10
1.5799875616
 20
7.4825850301
 30
0.0
  0
VERTEX
  5
35F
  8
0
  6
CONTINUOUS
 62
     7
 10
1.5785179996
 20
7.3386413546
 30
0.0
  0
SEQEND
  5
360
  8
0
  6
CONTINUOUS
 62
     7
  0
POLYLINE
  5
85
  8
0
  6
CONTINUOUS
 62
     7
 66
     1
 10
0.0
 20
0.0
 30
0.0
  0
VERTEX
  5
361
  8
0
  6
CONTINUOUS
 62
     7
 10
1.3411869185
 20
7.6201025033
 30
0.0
  0
VERTEX
  5
362
  8
0
  6
CONTINUOUS
 62
     7
 10
1.4759031348
 20
7.6427641246
 30
0.0
  0
VERTEX
  5
363
  8
0
  6
CONTINUOUS
 62
     7
 10
1.5785179996
 20
7.6741565573
 30
0.0
  0
SEQEND
  5
364
  8
0
  6
CONTINUOUS
 62
     7
  0
POLYLINE
  5
87
  8
0
  6
CONTINUOUS
 62
     7
 66
     1
 10
0.0
 20
0.0
 30
0.0
  0
VERTEX
  5
365
  8
0
  6
CONTINUOUS
 62
     7
 10
-0.1241847031
 20
7.0491565573
 30
0.0
  0
VERTEX
  5
366
  8
0
  6
CONTINUOUS
 62
     7
 10
-0.1095942871
 20
7.1340022125
 30
0.0
  0
VERTEX
  5
367
  8
0
  6
CONTINUOUS
 62
     7
 10
-0.0660291064
 20
7.2080829489
 30
0.0
  0
VERTEX
  5
368
  8
0
  6
CONTINUOUS
 62
     7
 10
0.0038603086
 20
7.2582986683
 30
0.0
  0
VERTEX
  5
369
  8
0
  6
CONTINUOUS
 62
     7
 10
0.0989247046
 20
7.2945796609
 30
0.0
  0
VERTEX
  5
36A
  8
0
  6
CONTINUOUS
 62
     7
 10
0.1995061753
 20
7.3092916925
 30
0.0
  0
SEQEND
  5
36B
  8
0
  6
CONTINUOUS
 62
     7
  0
POLYLINE
  5
8A
  8
0
  6
CONTINUOUS
 62
     7
 66
     1
 10
0.0
 20
0.0
 30
0.0
  0
VERTEX
  5
36C
  8
0
  6
CONTINUOUS
 62
     7
 10
-0.0836441626
 20
6.7011835844
 30
0.0
  0
VERTEX
  5
36D
  8
0
  6
CONTINUOUS
 62
     7
 10
-0.0768505968
 20
6.7399324678
 30
0.0
  0
VERTEX
  5
36E
  8
0
  6
CONTINUOUS
 62
     7
 10
-0.0654853788
 20
6.7687511519
 30
0.0
  0
SEQEND
  5
36F
  8
0
  6
CONTINUOUS
 62
     7
  0
POLYLINE
  5
8B
  8
0
  6
CONTINUOUS
 62
     7
 66
     1
 10
0.0
 20
0.0
 30
0.0
  0
VERTEX
  5
370
  8
0
  6
CONTINUOUS
 62
     7
 10
0.0136953644
 20
6.6133457465
 30
0.0
  0
VERTEX
  5
371
  8
0
  6
CONTINUOUS
 62
     7
 10
-0.0238559344
 20
6.6268559123
 30
0.0
  0
VERTEX
  5
372
  8
0
  6
CONTINUOUS
 62
     7
 10
-0.0588959422
 20
6.6458338458
 30
0.0
  0
VERTEX
  5
373
  8
0
  6
CONTINUOUS
 62
     7
 10
-0.0775871588
 20
6.6705955093
 30
0.0
  0
VERTEX
  5
374
  8
0
  6
CONTINUOUS
 62
     7
 10
-0.0836441626
 20
6.7011835844
 30
0.0
  0
SEQEND
  5
375
  8
0
  6
CONTINUOUS
 62
     7
  0
POLYLINE
  5
8D
  8
0
  6
CONTINUOUS
 62
     7
 66
     1
 10
0.0
 20
0.0
 30
0.0
  0
VERTEX
  5
376
  8
0
  6
CONTINUOUS
 62
     7
 10
-0.1512117302
 20
6.4317579087
 30
0.0
  0
VERTEX
  5
377
  8
0
  6
CONTINUOUS
 62
     7
 10
-0.1391683978
 20
6.5000955008
 30
0.0
  0
VERTEX
  5
378
  8
0
  6
CONTINUOUS
 62
     7
 10
-0.1142607166
 20
6.54873426
 30
0.0
  0
SEQEND
  5
379
  8
0
  6
CONTINUOUS
 62
     7
  0
POLYLINE
  5
92
  8
0
  6
CONTINUOUS
 62
     7
 66
     1
 10
0.0
 20
0.0
 30
0.0
  0
VERTEX
  5
37A
  8
0
  6
CONTINUOUS
 62
     7
 10
0.037977459
 20
6.7600940573
 30
0.0
  0
VERTEX
  5
37B
  8
0
  6
CONTINUOUS
 62
     7
 10
0.0419212135
 20
6.738074231
 30
0.0
  0
VERTEX
  5
37C
  8
0
  6
CONTINUOUS
 62
     7
 10
0.0551040434
 20
6.7200794958
 30
0.0
  0
VERTEX
  5
37D
  8
0
  6
CONTINUOUS
 62
     7
 10
0.0966850349
 20
6.7044236911
 30
0.0
  0
VERTEX
  5
37E
  8
0
  6
CONTINUOUS
 62
     7
 10
0.1862038104
 20
6.6990720979
 30
0.0
  0
SEQEND
  5
37F
  8
0
  6
CONTINUOUS
 62
     7
  0
POLYLINE
  5
96
  8
0
  6
CONTINUOUS
 62
     7
 66
     1
 10
0.0
 20
0.0
 30
0.0
  0
VERTEX
  5
380
  8
0
  6
CONTINUOUS
 62
     7
 10
0.410021378
 20
7.1876700708
 30
0.0
  0
VERTEX
  5
381
  8
0
  6
CONTINUOUS
 62
     7
 10
0.4260877084
 20
7.1425716381
 30
0.0
  0
VERTEX
  5
382
  8
0
  6
CONTINUOUS
 62
     7
 10
0.4298693509
 20
7.1051109492
 30
0.0
  0
SEQEND
  5
383
  8
0
  6
CONTINUOUS
 62
     7
  0
POLYLINE
  5
98
  8
0
  6
CONTINUOUS
 62
     7
 66
     1
 10
0.0
 20
0.0
 30
0.0
  0
VERTEX
  5
384
  8
0
  6
CONTINUOUS
 62
     7
 10
0.5785179996
 20
7.2453136519
 30
0.0
  0
VERTEX
  5
385
  8
0
  6
CONTINUOUS
 62
     7
 10
0.557753378
 20
7.213298981
 30
0.0
  0
VERTEX
  5
386
  8
0
  6
CONTINUOUS
 62
     7
 10
0.542200432
 20
7.1876700708
 30
0.0
  0
SEQEND
  5
387
  8
0
  6
CONTINUOUS
 62
     7
  0
POLYLINE
  5
9B
  8
0
  6
CONTINUOUS
 62
     7
 66
     1
 10
0.0
 20
0.0
 30
0.0
  0
VERTEX
  5
388
  8
0
  6
CONTINUOUS
 62
     7
 10
0.1995061753
 20
7.3092916925
 30
0.0
  0
VERTEX
  5
389
  8
0
  6
CONTINUOUS
 62
     7
 10
0.2977881179
 20
7.2915799658
 30
0.0
  0
VERTEX
  5
38A
  8
0
  6
CONTINUOUS
 62
     7
 10
0.3675804996
 20
7.2552376384
 30
0.0
  0
SEQEND
  5
38B
  8
0
  6
CONTINUOUS
 62
     7
  0
POLYLINE
  5
9D
  8
0
  6
CONTINUOUS
 62
     7
 66
     1
 10
0.0
 20
0.0
 30
0.0
  0
VERTEX
  5
38C
  8
0
  6
CONTINUOUS
 62
     7
 10
-1.7322928112
 20
6.7657950708
 30
0.0
  0
VERTEX
  5
38D
  8
0
  6
CONTINUOUS
 62
     7
 10
-1.7246017047
 20
6.8351381645
 30
0.0
  0
VERTEX
  5
38E
  8
0
  6
CONTINUOUS
 62
     7
 10
-1.6974370829
 20
6.89923765
 30
0.0
  0
VERTEX
  5
38F
  8
0
  6
CONTINUOUS
 62
     7
 10
-1.6491824049
 20
6.9491424924
 30
0.0
  0
VERTEX
  5
390
  8
0
  6
CONTINUOUS
 62
     7
 10
-1.5860398165
 20
6.9788493914
 30
0.0
  0
VERTEX
  5
391
  8
0
  6
CONTINUOUS
 62
     7
 10
-1.4510817028
 20
7.0149561971
 30
0.0
  0
VERTEX
  5
392
  8
0
  6
CONTINUOUS
 62
     7
 10
-1.3133738923
 20
7.0390214222
 30
0.0
  0
SEQEND
  5
393
  8
0
  6
CONTINUOUS
 62
     7
  0
POLYLINE
  5
9F
  8
0
  6
CONTINUOUS
 62
     7
 66
     1
 10
0.0
 20
0.0
 30
0.0
  0
VERTEX
  5
394
  8
0
  6
CONTINUOUS
 62
     7
 10
-1.4670901085
 20
6.6089116249
 30
0.0
  0
VERTEX
  5
395
  8
0
  6
CONTINUOUS
 62
     7
 10
-1.5137793796
 20
6.5960401046
 30
0.0
  0
VERTEX
  5
396
  8
0
  6
CONTINUOUS
 62
     7
 10
-1.5517607166
 20
6.5930754762
 30
0.0
  0
SEQEND
  5
397
  8
0
  6
CONTINUOUS
 62
     7
  0
POLYLINE
  5
A8
  8
0
  6
CONTINUOUS
 62
     7
 66
     1
 10
0.0
 20
0.0
 30
0.0
  0
VERTEX
  5
398
  8
0
  6
CONTINUOUS
 62
     7
 10
-1.1917522707
 20
6.7351785168
 30
0.0
  0
VERTEX
  5
399
  8
0
  6
CONTINUOUS
 62
     7
 10
-1.1910467669
 20
6.7096374474
 30
0.0
  0
VERTEX
  5
39A
  8
0
  6
CONTINUOUS
 62
     7
 10
-1.1869296446
 20
6.684486891
 30
0.0
  0
VERTEX
  5
39B
  8
0
  6
CONTINUOUS
 62
     7
 10
-1.1792757591
 20
6.674350919
 30
0.0
  0
VERTEX
  5
39C
  8
0
  6
CONTINUOUS
 62
     7
 10
-1.1681786831
 20
6.6682653063
 30
0.0
  0
VERTEX
  5
39D
  8
0
  6
CONTINUOUS
 62
     7
 10
-1.1429769329
 20
6.6642325708
 30
0.0
  0
SEQEND
  5
39E
  8
0
  6
CONTINUOUS
 62
     7
  0
POLYLINE
  5
B0
  8
0
  6
CONTINUOUS
 62
     7
 66
     1
 10
0.0
 20
0.0
 30
0.0
  0
VERTEX
  5
39F
  8
0
  6
CONTINUOUS
 62
     7
 10
-1.4869380815
 20
7.2417241249
 30
0.0
  0
VERTEX
  5
3A0
  8
0
  6
CONTINUOUS
 62
     7
 10
-1.5184762572
 20
7.2396268115
 30
0.0
  0
VERTEX
  5
3A1
  8
0
  6
CONTINUOUS
 62
     7
 10
-1.5493267841
 20
7.2327648634
 30
0.0
  0
VERTEX
  5
3A2
  8
0
  6
CONTINUOUS
 62
     7
 10
-1.578791963
 20
7.2213043684
 30
0.0
  0
VERTEX
  5
3A3
  8
0
  6
CONTINUOUS
 62
     7
 10
-1.603362588
 20
7.2026345415
 30
0.0
  0
VERTEX
  5
3A4
  8
0
  6
CONTINUOUS
 62
     7
 10
-1.6398097031
 20
7.1101785168
 30
0.0
  0
SEQEND
  5
3A5
  8
0
  6
CONTINUOUS
 62
     7
  0
POLYLINE
  5
B3
  8
0
  6
CONTINUOUS
 62
     7
 66
     1
 10
0.0
 20
0.0
 30
0.0
  0
VERTEX
  5
3A6
  8
0
  6
CONTINUOUS
 62
     7
 10
-2.2692438247
 20
6.9775771654
 30
0.0
  0
VERTEX
  5
3A7
  8
0
  6
CONTINUOUS
 62
     7
 10
-2.4012110519
 20
6.9616138274
 30
0.0
  0
VERTEX
  5
3A8
  8
0
  6
CONTINUOUS
 62
     7
 10
-2.5057303112
 20
6.9579403411
 30
0.0
  0
SEQEND
  5
3A9
  8
0
  6
CONTINUOUS
 62
     7
  0
POLYLINE
  5
B5
  8
0
  6
CONTINUOUS
 62
     7
 66
     1
 10
0.0
 20
0.0
 30
0.0
  0
VERTEX
  5
3AA
  8
0
  6
CONTINUOUS
 62
     7
 10
-2.2593198383
 20
7.029519733
 30
0.0
  0
VERTEX
  5
3AB
  8
0
  6
CONTINUOUS
 62
     7
 10
-2.2598674339
 20
7.0052486499
 30
0.0
  0
VERTEX
  5
3AC
  8
0
  6
CONTINUOUS
 62
     7
 10
-2.2614313247
 20
6.98623426
 30
0.0
  0
SEQEND
  5
3AD
  8
0
  6
CONTINUOUS
 62
     7
  0
POLYLINE
  5
BE
  8
0
  6
CONTINUOUS
 62
     7
 66
     1
 10
0.0
 20
0.0
 30
0.0
  0
VERTEX
  5
3AE
  8
0
  6
CONTINUOUS
 62
     7
 10
-4.3944549734
 20
6.7657950708
 30
0.0
  0
VERTEX
  5
3AF
  8
0
  6
CONTINUOUS
 62
     7
 10
-4.3867638668
 20
6.8351381645
 30
0.0
  0
VERTEX
  5
3B0
  8
0
  6
CONTINUOUS
 62
     7
 10
-4.3595992451
 20
6.89923765
 30
0.0
  0
VERTEX
  5
3B1
  8
0
  6
CONTINUOUS
 62
     7
 10
-4.311344567
 20
6.9491424924
 30
0.0
  0
VERTEX
  5
3B2
  8
0
  6
CONTINUOUS
 62
     7
 10
-4.2482019787
 20
6.9788493914
 30
0.0
  0
VERTEX
  5
3B3
  8
0
  6
CONTINUOUS
 62
     7
 10
-4.113243865
 20
7.0149561971
 30
0.0
  0
VERTEX
  5
3B4
  8
0
  6
CONTINUOUS
 62
     7
 10
-3.9755360545
 20
7.0390214222
 30
0.0
  0
SEQEND
  5
3B5
  8
0
  6
CONTINUOUS
 62
     7
  0
POLYLINE
  5
C0
  8
0
  6
CONTINUOUS
 62
     7
 66
     1
 10
0.0
 20
0.0
 30
0.0
  0
VERTEX
  5
3B6
  8
0
  6
CONTINUOUS
 62
     7
 10
-4.1292522707
 20
6.6089116249
 30
0.0
  0
VERTEX
  5
3B7
  8
0
  6
CONTINUOUS
 62
     7
 10
-4.1759415417
 20
6.5960401046
 30
0.0
  0
VERTEX
  5
3B8
  8
0
  6
CONTINUOUS
 62
     7
 10
-4.2139228788
 20
6.5930754762
 30
0.0
  0
SEQEND
  5
3B9
  8
0
  6
CONTINUOUS
 62
     7
  0
POLYLINE
  5
C9
  8
0
  6
CONTINUOUS
 62
     7
 66
     1
 10
0.0
 20
0.0
 30
0.0
  0
VERTEX
  5
3BA
  8
0
  6
CONTINUOUS
 62
     7
 10
-3.8539144329
 20
6.7351785168
 30
0.0
  0
VERTEX
  5
3BB
  8
0
  6
CONTINUOUS
 62
     7
 10
-3.8532089291
 20
6.7096374474
 30
0.0
  0
VERTEX
  5
3BC
  8
0
  6
CONTINUOUS
 62
     7
 10
-3.8490918067
 20
6.684486891
 30
0.0
  0
VERTEX
  5
3BD
  8
0
  6
CONTINUOUS
 62
     7
 10
-3.8414379212
 20
6.674350919
 30
0.0
  0
VERTEX
  5
3BE
  8
0
  6
CONTINUOUS
 62
     7
 10
-3.8303408453
 20
6.6682653063
 30
0.0
  0
VERTEX
  5
3BF
  8
0
  6
CONTINUOUS
 62
     7
 10
-3.805139095
 20
6.6642325708
 30
0.0
  0
SEQEND
  5
3C0
  8
0
  6
CONTINUOUS
 62
     7
  0
POLYLINE
  5
D1
  8
0
  6
CONTINUOUS
 62
     7
 66
     1
 10
0.0
 20
0.0
 30
0.0
  0
VERTEX
  5
3C1
  8
0
  6
CONTINUOUS
 62
     7
 10
-4.1491002437
 20
7.2417241249
 30
0.0
  0
VERTEX
  5
3C2
  8
0
  6
CONTINUOUS
 62
     7
 10
-4.1806384194
 20
7.2396268115
 30
0.0
  0
VERTEX
  5
3C3
  8
0
  6
CONTINUOUS
 62
     7
 10
-4.2114889463
 20
7.2327648634
 30
0.0
  0
VERTEX
  5
3C4
  8
0
  6
CONTINUOUS
 62
     7
 10
-4.2409541251
 20
7.2213043684
 30
0.0
  0
VERTEX
  5
3C5
  8
0
  6
CONTINUOUS
 62
     7
 10
-4.2655247502
 20
7.2026345415
 30
0.0
  0
VERTEX
  5
3C6
  8
0
  6
CONTINUOUS
 62
     7
 10
-4.3019718653
 20
7.1101785168
 30
0.0
  0
SEQEND
  5
3C7
  8
0
  6
CONTINUOUS
 62
     7
  0
CIRCLE
  5
E0
  8
0
  6
CONTINUOUS
 62
     7
 10
-7.975
 20
2.8779947443
 30
0.0
 40
0.1499999999999995
  0
CIRCLE
  5
E1
  8
0
  6
CONTINUOUS
 62
     7
 10
-6.39
 20
0.1475
 30
0.0
 40
0.1600000000000019
  0
CIRCLE
  5
E2
  8
0
  6
CONTINUOUS
 62
     7
 10
6.39
 20
-3.4025
 30
0.0
 40
0.1600000000000001
  0
CIRCLE
  5
E3
  8
0
  6
CONTINUOUS
 62
     7
 10
6.39
 20
3.4025
 30
0.0
 40
0.160000000000001
  0
CIRCLE
  5
100
  8
0
  6
CONTINUOUS
 62
     7
 10
6.475
 20
2.8779947443
 30
0.0
 40
0.1499999999999995
  0
CIRCLE
  5
101
  8
0
  6
CONTINUOUS
 62
     7
 10
6.475
 20
-2.0720052557
 30
0.0
 40
0.1499999999999986
  0
CIRCLE
  5
102
  8
0
  6
CONTINUOUS
 62
     7
 10
-6.39
 20
-3.4025
 30
0.0
 40
0.1600000000000019
  0
CIRCLE
  5
103
  8
0
  6
CONTINUOUS
 62
     7
 10
-7.975
 20
-2.0720052557
 30
0.0
 40
0.1499999999999968
  0
POLYLINE
  5
10C
  8
0
  6
CONTINUOUS
 62
     7
 66
     1
 10
0.0
 20
0.0
 30
0.0
  0
VERTEX
  5
3C8
  8
0
  6
CONTINUOUS
 62
     7
 10
-4.8974110545
 20
7.3251278411
 30
0.0
  0
VERTEX
  5
3C9
  8
0
  6
CONTINUOUS
 62
     7
 10
-4.8232909174
 20
7.4891633029
 30
0.0
  0
VERTEX
  5
3CA
  8
0
  6
CONTINUOUS
 62
     7
 10
-4.7698772707
 20
7.6201025033
 30
0.0
  0
SEQEND
  5
3CB
  8
0
  6
CONTINUOUS
 62
     7
  0
POLYLINE
  5
10F
  8
0
  6
CONTINUOUS
 62
     7
 66
     1
 10
0.0
 20
0.0
 30
0.0
  0
VERTEX
  5
3CC
  8
0
  6
CONTINUOUS
 62
     7
 10
-5.5158654464
 20
7.6201025033
 30
0.0
  0
VERTEX
  5
3CD
  8
0
  6
CONTINUOUS
 62
     7
 10
-5.4530186265
 20
7.4800095046
 30
0.0
  0
VERTEX
  5
3CE
  8
0
  6
CONTINUOUS
 62
     7
 10
-5.4010005815
 20
7.3711582465
 30
0.0
  0
SEQEND
  5
3CF
  8
0
  6
CONTINUOUS
 62
     7
  0
POLYLINE
  5
114
  8
0
  6
CONTINUOUS
 62
     7
 66
     1
 10
0.0
 20
0.0
 30
0.0
  0
VERTEX
  5
3D0
  8
0
  6
CONTINUOUS
 62
     7
 10
-5.6512117302
 20
7.2835315573
 30
0.0
  0
VERTEX
  5
3D1
  8
0
  6
CONTINUOUS
 62
     7
 10
-5.6545525261
 20
7.4872469229
 30
0.0
  0
VERTEX
  5
3D2
  8
0
  6
CONTINUOUS
 62
     7
 10
-5.6591952096
 20
7.5379396982
 30
0.0
  0
VERTEX
  5
3D3
  8
0
  6
CONTINUOUS
 62
     7
 10
-5.6626548401
 20
7.5501539526
 30
0.0
  0
VERTEX
  5
3D4
  8
0
  6
CONTINUOUS
 62
     7
 10
-5.6702290355
 20
7.5603530869
 30
0.0
  0
VERTEX
  5
3D5
  8
0
  6
CONTINUOUS
 62
     7
 10
-5.6924751176
 20
7.5723003936
 30
0.0
  0
VERTEX
  5
3D6
  8
0
  6
CONTINUOUS
 62
     7
 10
-5.7430373299
 20
7.5779645761
 30
0.0
  0
VERTEX
  5
3D7
  8
0
  6
CONTINUOUS
 62
     7
 10
-5.7939482166
 20
7.5795619627
 30
0.0
  0
SEQEND
  5
3D8
  8
0
  6
CONTINUOUS
 62
     7
  0
POLYLINE
  5
116
  8
0
  6
CONTINUOUS
 62
     7
 66
     1
 10
0.0
 20
0.0
 30
0.0
  0
VERTEX
  5
3D9
  8
0
  6
CONTINUOUS
 62
     7
 10
-5.7939482166
 20
6.6606430438
 30
0.0
  0
VERTEX
  5
3DA
  8
0
  6
CONTINUOUS
 62
     7
 10
-5.7368982246
 20
6.6625501267
 30
0.0
  0
VERTEX
  5
3DB
  8
0
  6
CONTINUOUS
 62
     7
 10
-5.6924079426
 20
6.6678161651
 30
0.0
  0
VERTEX
  5
3DC
  8
0
  6
CONTINUOUS
 62
     7
 10
-5.6702057848
 20
6.6798804244
 30
0.0
  0
VERTEX
  5
3DD
  8
0
  6
CONTINUOUS
 62
     7
 10
-5.6626381401
 20
6.6900708188
 30
0.0
  0
VERTEX
  5
3DE
  8
0
  6
CONTINUOUS
 62
     7
 10
-5.6584875605
 20
6.7021226167
 30
0.0
  0
VERTEX
  5
3DF
  8
0
  6
CONTINUOUS
 62
     7
 10
-5.6543043542
 20
6.7528274743
 30
0.0
  0
VERTEX
  5
3E0
  8
0
  6
CONTINUOUS
 62
     7
 10
-5.6512117302
 20
6.9566734492
 30
0.0
  0
SEQEND
  5
3E1
  8
0
  6
CONTINUOUS
 62
     7
  0
POLYLINE
  5
11E
  8
0
  6
CONTINUOUS
 62
     7
 66
     1
 10
0.0
 20
0.0
 30
0.0
  0
VERTEX
  5
3E2
  8
0
  6
CONTINUOUS
 62
     7
 10
-5.5836441626
 20
6.95498426
 30
0.0
  0
VERTEX
  5
3E3
  8
0
  6
CONTINUOUS
 62
     7
 10
-5.5803839636
 20
6.752108438
 30
0.0
  0
VERTEX
  5
3E4
  8
0
  6
CONTINUOUS
 62
     7
 10
-5.5757115802
 20
6.7016297744
 30
0.0
  0
VERTEX
  5
3E5
  8
0
  6
CONTINUOUS
 62
     7
 10
-5.5720083679
 20
6.6895393636
 30
0.0
  0
VERTEX
  5
3E6
  8
0
  6
CONTINUOUS
 62
     7
 10
-5.5641268525
 20
6.6796033815
 30
0.0
  0
VERTEX
  5
3E7
  8
0
  6
CONTINUOUS
 62
     7
 10
-5.5419871119
 20
6.6677030034
 30
0.0
  0
VERTEX
  5
3E8
  8
0
  6
CONTINUOUS
 62
     7
 10
-5.4916072189
 20
6.6622534197
 30
0.0
  0
VERTEX
  5
3E9
  8
0
  6
CONTINUOUS
 62
     7
 10
-5.4409076761
 20
6.6606430438
 30
0.0
  0
SEQEND
  5
3EA
  8
0
  6
CONTINUOUS
 62
     7
  0
POLYLINE
  5
121
  8
0
  6
CONTINUOUS
 62
     7
 66
     1
 10
0.0
 20
0.0
 30
0.0
  0
VERTEX
  5
3EB
  8
0
  6
CONTINUOUS
 62
     7
 10
-5.1858401085
 20
6.6065889898
 30
0.0
  0
VERTEX
  5
3EC
  8
0
  6
CONTINUOUS
 62
     7
 10
-5.2212130536
 20
6.6880768306
 30
0.0
  0
VERTEX
  5
3ED
  8
0
  6
CONTINUOUS
 62
     7
 10
-5.2500292977
 20
6.7516481114
 30
0.0
  0
SEQEND
  5
3EE
  8
0
  6
CONTINUOUS
 62
     7
  0
POLYLINE
  5
123
  8
0
  6
CONTINUOUS
 62
     7
 66
     1
 10
0.0
 20
0.0
 30
0.0
  0
VERTEX
  5
3EF
  8
0
  6
CONTINUOUS
 62
     7
 10
-5.0002404464
 20
6.9657528411
 30
0.0
  0
VERTEX
  5
3F0
  8
0
  6
CONTINUOUS
 62
     7
 10
-5.0916162371
 20
6.7658029797
 30
0.0
  0
VERTEX
  5
3F1
  8
0
  6
CONTINUOUS
 62
     7
 10
-5.1586019329
 20
6.6065889898
 30
0.0
  0
SEQEND
  5
3F2
  8
0
  6
CONTINUOUS
 62
     7
  0
POLYLINE
  5
126
  8
0
  6
CONTINUOUS
 62
     7
 66
     1
 10
0.0
 20
0.0
 30
0.0
  0
VERTEX
  5
3F3
  8
0
  6
CONTINUOUS
 62
     7
 10
-4.9020563247
 20
6.6606430438
 30
0.0
  0
VERTEX
  5
3F4
  8
0
  6
CONTINUOUS
 62
     7
 10
-4.8515161391
 20
6.6626380961
 30
0.0
  0
VERTEX
  5
3F5
  8
0
  6
CONTINUOUS
 62
     7
 10
-4.8013108237
 20
6.6683003402
 30
0.0
  0
VERTEX
  5
3F6
  8
0
  6
CONTINUOUS
 62
     7
 10
-4.7789465425
 20
6.6797264124
 30
0.0
  0
VERTEX
  5
3F7
  8
0
  6
CONTINUOUS
 62
     7
 10
-4.7714135428
 20
6.6898221307
 30
0.0
  0
VERTEX
  5
3F8
  8
0
  6
CONTINUOUS
 62
     7
 10
-4.7673054808
 20
6.70175295
 30
0.0
  0
VERTEX
  5
3F9
  8
0
  6
CONTINUOUS
 62
     7
 10
-4.762665824
 20
6.7520538243
 30
0.0
  0
VERTEX
  5
3FA
  8
0
  6
CONTINUOUS
 62
     7
 10
-4.7593198383
 20
6.9543508141
 30
0.0
  0
SEQEND
  5
3FB
  8
0
  6
CONTINUOUS
 62
     7
  0
POLYLINE
  5
12E
  8
0
  6
CONTINUOUS
 62
     7
 66
     1
 10
0.0
 20
0.0
 30
0.0
  0
VERTEX
  5
3FC
  8
0
  6
CONTINUOUS
 62
     7
 10
-4.6241847031
 20
6.9560400033
 30
0.0
  0
VERTEX
  5
3FD
  8
0
  6
CONTINUOUS
 62
     7
 10
-4.62050599
 20
6.7528978056
 30
0.0
  0
VERTEX
  5
3FE
  8
0
  6
CONTINUOUS
 62
     7
 10
-4.615857999
 20
6.702346313
 30
0.0
  0
VERTEX
  5
3FF
  8
0
  6
CONTINUOUS
 62
     7
 10
-4.6124612673
 20
6.6901458586
 30
0.0
  0
VERTEX
  5
400
  8
0
  6
CONTINUOUS
 62
     7
 10
-4.6048010858
 20
6.6800698891
 30
0.0
  0
VERTEX
  5
401
  8
0
  6
CONTINUOUS
 62
     7
 10
-4.5826413895
 20
6.6681616933
 30
0.0
  0
VERTEX
  5
402
  8
0
  6
CONTINUOUS
 62
     7
 10
-4.5322023042
 20
6.6626239199
 30
0.0
  0
VERTEX
  5
403
  8
0
  6
CONTINUOUS
 62
     7
 10
-4.4814482166
 20
6.6606430438
 30
0.0
  0
SEQEND
  5
404
  8
0
  6
CONTINUOUS
 62
     7
  0
POLYLINE
  5
130
  8
0
  6
CONTINUOUS
 62
     7
 66
     1
 10
0.0
 20
0.0
 30
0.0
  0
VERTEX
  5
405
  8
0
  6
CONTINUOUS
 62
     7
 10
-4.4814482166
 20
7.5795619627
 30
0.0
  0
VERTEX
  5
406
  8
0
  6
CONTINUOUS
 62
     7
 10
-4.5382803553
 20
7.577208967
 30
0.0
  0
VERTEX
  5
407
  8
0
  6
CONTINUOUS
 62
     7
 10
-4.5826044795
 20
7.5718562976
 30
0.0
  0
VERTEX
  5
408
  8
0
  6
CONTINUOUS
 62
     7
 10
-4.604838318
 20
7.5600289354
 30
0.0
  0
VERTEX
  5
409
  8
0
  6
CONTINUOUS
 62
     7
 10
-4.6124168739
 20
7.5499073029
 30
0.0
  0
VERTEX
  5
40A
  8
0
  6
CONTINUOUS
 62
     7
 10
-4.6163312714
 20
7.5378299439
 30
0.0
  0
VERTEX
  5
40B
  8
0
  6
CONTINUOUS
 62
     7
 10
-4.6204274221
 20
7.4872841614
 30
0.0
  0
VERTEX
  5
40C
  8
0
  6
CONTINUOUS
 62
     7
 10
-4.6241847031
 20
7.2841650033
 30
0.0
  0
SEQEND
  5
40D
  8
0
  6
CONTINUOUS
 62
     7
  0
POLYLINE
  5
137
  8
0
  6
CONTINUOUS
 62
     7
 66
     1
 10
0.0
 20
0.0
 30
0.0
  0
VERTEX
  5
40E
  8
0
  6
CONTINUOUS
 62
     7
 10
-3.5728755815
 20
7.4228896654
 30
0.0
  0
VERTEX
  5
40F
  8
0
  6
CONTINUOUS
 62
     7
 10
-3.5792027068
 20
7.5476084542
 30
0.0
  0
VERTEX
  5
410
  8
0
  6
CONTINUOUS
 62
     7
 10
-3.582109033
 20
7.5629267196
 30
0.0
  0
VERTEX
  5
411
  8
0
  6
CONTINUOUS
 62
     7
 10
-3.5857829667
 20
7.5697474998
 30
0.0
  0
VERTEX
  5
412
  8
0
  6
CONTINUOUS
 62
     7
 10
-3.5922653236
 20
7.5741926862
 30
0.0
  0
VERTEX
  5
413
  8
0
  6
CONTINUOUS
 62
     7
 10
-3.6229718157
 20
7.5788233327
 30
0.0
  0
VERTEX
  5
414
  8
0
  6
CONTINUOUS
 62
     7
 10
-3.6854178112
 20
7.5795619627
 30
0.0
  0
SEQEND
  5
415
  8
0
  6
CONTINUOUS
 62
     7
  0
POLYLINE
  5
13A
  8
0
  6
CONTINUOUS
 62
     7
 66
     1
 10
0.0
 20
0.0
 30
0.0
  0
VERTEX
  5
416
  8
0
  6
CONTINUOUS
 62
     7
 10
-3.6852066626
 20
6.6606430438
 30
0.0
  0
VERTEX
  5
417
  8
0
  6
CONTINUOUS
 62
     7
 10
-3.6389430684
 20
6.6637384464
 30
0.0
  0
VERTEX
  5
418
  8
0
  6
CONTINUOUS
 62
     7
 10
-3.602769523
 20
6.6675938508
 30
0.0
  0
VERTEX
  5
419
  8
0
  6
CONTINUOUS
 62
     7
 10
-3.59345122
 20
6.6721052068
 30
0.0
  0
VERTEX
  5
41A
  8
0
  6
CONTINUOUS
 62
     7
 10
-3.5860081024
 20
6.6792707989
 30
0.0
  0
VERTEX
  5
41B
  8
0
  6
CONTINUOUS
 62
     7
 10
-3.5790785591
 20
6.6986189607
 30
0.0
  0
VERTEX
  5
41C
  8
0
  6
CONTINUOUS
 62
     7
 10
-3.5757619668
 20
6.7398695536
 30
0.0
  0
VERTEX
  5
41D
  8
0
  6
CONTINUOUS
 62
     7
 10
-3.5701306491
 20
6.9053643276
 30
0.0
  0
SEQEND
  5
41E
  8
0
  6
CONTINUOUS
 62
     7
  0
POLYLINE
  5
142
  8
0
  6
CONTINUOUS
 62
     7
 66
     1
 10
0.0
 20
0.0
 30
0.0
  0
VERTEX
  5
41F
  8
0
  6
CONTINUOUS
 62
     7
 10
-3.4485090274
 20
6.8929065573
 30
0.0
  0
VERTEX
  5
420
  8
0
  6
CONTINUOUS
 62
     7
 10
-3.4429242881
 20
6.733321411
 30
0.0
  0
VERTEX
  5
421
  8
0
  6
CONTINUOUS
 62
     7
 10
-3.4390869012
 20
6.6936217902
 30
0.0
  0
VERTEX
  5
422
  8
0
  6
CONTINUOUS
 62
     7
 10
-3.430415781
 20
6.675760816
 30
0.0
  0
VERTEX
  5
423
  8
0
  6
CONTINUOUS
 62
     7
 10
-3.4225031177
 20
6.669711172
 30
0.0
  0
VERTEX
  5
424
  8
0
  6
CONTINUOUS
 62
     7
 10
-3.4130495448
 20
6.6665237038
 30
0.0
  0
VERTEX
  5
425
  8
0
  6
CONTINUOUS
 62
     7
 10
-3.3685008559
 20
6.6627734764
 30
0.0
  0
VERTEX
  5
426
  8
0
  6
CONTINUOUS
 62
     7
 10
-3.3334330139
 20
6.6606430438
 30
0.0
  0
SEQEND
  5
427
  8
0
  6
CONTINUOUS
 62
     7
  0
POLYLINE
  5
145
  8
0
  6
CONTINUOUS
 62
     7
 66
     1
 10
0.0
 20
0.0
 30
0.0
  0
VERTEX
  5
428
  8
0
  6
CONTINUOUS
 62
     7
 10
-3.2656542977
 20
6.807180206
 30
0.0
  0
VERTEX
  5
429
  8
0
  6
CONTINUOUS
 62
     7
 10
-3.3091198302
 20
6.8486433775
 30
0.0
  0
VERTEX
  5
42A
  8
0
  6
CONTINUOUS
 62
     7
 10
-3.3439904464
 20
6.8804487871
 30
0.0
  0
SEQEND
  5
42B
  8
0
  6
CONTINUOUS
 62
     7
  0
POLYLINE
  5
148
  8
0
  6
CONTINUOUS
 62
     7
 66
     1
 10
0.0
 20
0.0
 30
0.0
  0
VERTEX
  5
42C
  8
0
  6
CONTINUOUS
 62
     7
 10
-3.0566171356
 20
6.6065889898
 30
0.0
  0
VERTEX
  5
42D
  8
0
  6
CONTINUOUS
 62
     7
 10
-3.1098822344
 20
6.6529338625
 30
0.0
  0
VERTEX
  5
42E
  8
0
  6
CONTINUOUS
 62
     7
 10
-3.1505782842
 20
6.6906261519
 30
0.0
  0
SEQEND
  5
42F
  8
0
  6
CONTINUOUS
 62
     7
  0
POLYLINE
  5
149
  8
0
  6
CONTINUOUS
 62
     7
 66
     1
 10
0.0
 20
0.0
 30
0.0
  0
VERTEX
  5
430
  8
0
  6
CONTINUOUS
 62
     7
 10
-2.9079684869
 20
6.6526193952
 30
0.0
  0
VERTEX
  5
431
  8
0
  6
CONTINUOUS
 62
     7
 10
-2.991630533
 20
6.6282397727
 30
0.0
  0
VERTEX
  5
432
  8
0
  6
CONTINUOUS
 62
     7
 10
-3.0566171356
 20
6.6065889898
 30
0.0
  0
SEQEND
  5
433
  8
0
  6
CONTINUOUS
 62
     7
  0
POLYLINE
  5
14B
  8
0
  6
CONTINUOUS
 62
     7
 66
     1
 10
0.0
 20
0.0
 30
0.0
  0
VERTEX
  5
434
  8
0
  6
CONTINUOUS
 62
     7
 10
-3.3184414599
 20
7.0293085844
 30
0.0
  0
VERTEX
  5
435
  8
0
  6
CONTINUOUS
 62
     7
 10
-3.2120197129
 20
6.9207105213
 30
0.0
  0
VERTEX
  5
436
  8
0
  6
CONTINUOUS
 62
     7
 10
-3.1016949804
 20
6.8160484368
 30
0.0
  0
VERTEX
  5
437
  8
0
  6
CONTINUOUS
 62
     7
 10
-3.0575548221
 20
6.7757869139
 30
0.0
  0
VERTEX
  5
438
  8
0
  6
CONTINUOUS
 62
     7
 10
-3.0122686641
 20
6.7368235435
 30
0.0
  0
VERTEX
  5
439
  8
0
  6
CONTINUOUS
 62
     7
 10
-2.9647456431
 20
6.7006673254
 30
0.0
  0
VERTEX
  5
43A
  8
0
  6
CONTINUOUS
 62
     7
 10
-2.9079684869
 20
6.6849251384
 30
0.0
  0
SEQEND
  5
43B
  8
0
  6
CONTINUOUS
 62
     7
  0
POLYLINE
  5
154
  8
0
  6
CONTINUOUS
 62
     7
 66
     1
 10
0.0
 20
0.0
 30
0.0
  0
VERTEX
  5
43C
  8
0
  6
CONTINUOUS
 62
     7
 10
-3.4349955139
 20
7.6652883141
 30
0.0
  0
VERTEX
  5
43D
  8
0
  6
CONTINUOUS
 62
     7
 10
-3.4470359678
 20
7.4819930527
 30
0.0
  0
VERTEX
  5
43E
  8
0
  6
CONTINUOUS
 62
     7
 10
-3.4485090274
 20
7.3375856114
 30
0.0
  0
SEQEND
  5
43F
  8
0
  6
CONTINUOUS
 62
     7
  0
POLYLINE
  5
156
  8
0
  6
CONTINUOUS
 62
     7
 66
     1
 10
0.0
 20
0.0
 30
0.0
  0
VERTEX
  5
440
  8
0
  6
CONTINUOUS
 62
     7
 10
-3.6858401085
 20
7.6201025033
 30
0.0
  0
VERTEX
  5
441
  8
0
  6
CONTINUOUS
 62
     7
 10
-3.5511238922
 20
7.6427641246
 30
0.0
  0
VERTEX
  5
442
  8
0
  6
CONTINUOUS
 62
     7
 10
-3.4485090274
 20
7.6741565573
 30
0.0
  0
SEQEND
  5
443
  8
0
  6
CONTINUOUS
 62
     7
  0
POLYLINE
  5
15A
  8
0
  6
CONTINUOUS
 62
     7
 66
     1
 10
0.0
 20
0.0
 30
0.0
  0
VERTEX
  5
444
  8
0
  6
CONTINUOUS
 62
     7
 10
-2.059362068
 20
7.4228896654
 30
0.0
  0
VERTEX
  5
445
  8
0
  6
CONTINUOUS
 62
     7
 10
-2.0656891933
 20
7.5476084542
 30
0.0
  0
VERTEX
  5
446
  8
0
  6
CONTINUOUS
 62
     7
 10
-2.0685955195
 20
7.5629267196
 30
0.0
  0
VERTEX
  5
447
  8
0
  6
CONTINUOUS
 62
     7
 10
-2.0722694532
 20
7.5697474998
 30
0.0
  0
VERTEX
  5
448
  8
0
  6
CONTINUOUS
 62
     7
 10
-2.0787518101
 20
7.5741926862
 30
0.0
  0
VERTEX
  5
449
  8
0
  6
CONTINUOUS
 62
     7
 10
-2.1094583022
 20
7.5788233327
 30
0.0
  0
VERTEX
  5
44A
  8
0
  6
CONTINUOUS
 62
     7
 10
-2.1719042977
 20
7.5795619627
 30
0.0
  0
SEQEND
  5
44B
  8
0
  6
CONTINUOUS
 62
     7
  0
POLYLINE
  5
15D
  8
0
  6
CONTINUOUS
 62
     7
 66
     1
 10
0.0
 20
0.0
 30
0.0
  0
VERTEX
  5
44C
  8
0
  6
CONTINUOUS
 62
     7
 10
-2.1716931491
 20
6.6606430438
 30
0.0
  0
VERTEX
  5
44D
  8
0
  6
CONTINUOUS
 62
     7
 10
-2.1254295549
 20
6.6637384464
 30
0.0
  0
VERTEX
  5
44E
  8
0
  6
CONTINUOUS
 62
     7
 10
-2.0892560095
 20
6.6675938508
 30
0.0
  0
VERTEX
  5
44F
  8
0
  6
CONTINUOUS
 62
     7
 10
-2.0799377065
 20
6.6721052068
 30
0.0
  0
VERTEX
  5
450
  8
0
  6
CONTINUOUS
 62
     7
 10
-2.0724945889
 20
6.6792707989
 30
0.0
  0
VERTEX
  5
451
  8
0
  6
CONTINUOUS
 62
     7
 10
-2.0655650456
 20
6.6986189607
 30
0.0
  0
VERTEX
  5
452
  8
0
  6
CONTINUOUS
 62
     7
 10
-2.0622484533
 20
6.7398695536
 30
0.0
  0
VERTEX
  5
453
  8
0
  6
CONTINUOUS
 62
     7
 10
-2.0566171356
 20
6.9053643276
 30
0.0
  0
SEQEND
  5
454
  8
0
  6
CONTINUOUS
 62
     7
  0
POLYLINE
  5
165
  8
0
  6
CONTINUOUS
 62
     7
 66
     1
 10
0.0
 20
0.0
 30
0.0
  0
VERTEX
  5
455
  8
0
  6
CONTINUOUS
 62
     7
 10
-1.9349955139
 20
6.8943845979
 30
0.0
  0
VERTEX
  5
456
  8
0
  6
CONTINUOUS
 62
     7
 10
-1.9294203541
 20
6.7340662526
 30
0.0
  0
VERTEX
  5
457
  8
0
  6
CONTINUOUS
 62
     7
 10
-1.9256607697
 20
6.6941717112
 30
0.0
  0
VERTEX
  5
458
  8
0
  6
CONTINUOUS
 62
     7
 10
-1.9172047613
 20
6.6761050783
 30
0.0
  0
VERTEX
  5
459
  8
0
  6
CONTINUOUS
 62
     7
 10
-1.90935609
 20
6.6699061931
 30
0.0
  0
VERTEX
  5
45A
  8
0
  6
CONTINUOUS
 62
     7
 10
-1.8998973121
 20
6.6665824018
 30
0.0
  0
VERTEX
  5
45B
  8
0
  6
CONTINUOUS
 62
     7
 10
-1.8551481418
 20
6.6627834318
 30
0.0
  0
VERTEX
  5
45C
  8
0
  6
CONTINUOUS
 62
     7
 10
-1.8199195004
 20
6.6606430438
 30
0.0
  0
SEQEND
  5
45D
  8
0
  6
CONTINUOUS
 62
     7
  0
POLYLINE
  5
167
  8
0
  6
CONTINUOUS
 62
     7
 66
     1
 10
0.0
 20
0.0
 30
0.0
  0
VERTEX
  5
45E
  8
0
  6
CONTINUOUS
 62
     7
 10
-1.9214820004
 20
7.6652883141
 30
0.0
  0
VERTEX
  5
45F
  8
0
  6
CONTINUOUS
 62
     7
 10
-1.9335259519
 20
7.4825850301
 30
0.0
  0
VERTEX
  5
460
  8
0
  6
CONTINUOUS
 62
     7
 10
-1.9349955139
 20
7.3386413546
 30
0.0
  0
SEQEND
  5
461
  8
0
  6
CONTINUOUS
 62
     7
  0
POLYLINE
  5
169
  8
0
  6
CONTINUOUS
 62
     7
 66
     1
 10
0.0
 20
0.0
 30
0.0
  0
VERTEX
  5
462
  8
0
  6
CONTINUOUS
 62
     7
 10
-2.172326595
 20
7.6201025033
 30
0.0
  0
VERTEX
  5
463
  8
0
  6
CONTINUOUS
 62
     7
 10
-2.0376103787
 20
7.6427641246
 30
0.0
  0
VERTEX
  5
464
  8
0
  6
CONTINUOUS
 62
     7
 10
-1.9349955139
 20
7.6741565573
 30
0.0
  0
SEQEND
  5
465
  8
0
  6
CONTINUOUS
 62
     7
  0
POLYLINE
  5
16E
  8
0
  6
CONTINUOUS
 62
     7
 66
     1
 10
0.0
 20
0.0
 30
0.0
  0
VERTEX
  5
466
  8
0
  6
CONTINUOUS
 62
     7
 10
-0.9214820004
 20
7.0516903411
 30
0.0
  0
VERTEX
  5
467
  8
0
  6
CONTINUOUS
 62
     7
 10
-0.9255824903
 20
7.1509011027
 30
0.0
  0
VERTEX
  5
468
  8
0
  6
CONTINUOUS
 62
     7
 10
-0.927596761
 20
7.1786379022
 30
0.0
  0
VERTEX
  5
469
  8
0
  6
CONTINUOUS
 62
     7
 10
-0.9317718656
 20
7.2000102966
 30
0.0
  0
VERTEX
  5
46A
  8
0
  6
CONTINUOUS
 62
     7
 10
-0.9404406291
 20
7.2087779713
 30
0.0
  0
VERTEX
  5
46B
  8
0
  6
CONTINUOUS
 62
     7
 10
-0.9522512599
 20
7.2125321315
 30
0.0
  0
VERTEX
  5
46C
  8
0
  6
CONTINUOUS
 62
     7
 10
-0.977014095
 20
7.2140636519
 30
0.0
  0
SEQEND
  5
46D
  8
0
  6
CONTINUOUS
 62
     7
  0
POLYLINE
  5
170
  8
0
  6
CONTINUOUS
 62
     7
 66
     1
 10
0.0
 20
0.0
 30
0.0
  0
VERTEX
  5
46E
  8
0
  6
CONTINUOUS
 62
     7
 10
-1.0365580139
 20
6.6606430438
 30
0.0
  0
VERTEX
  5
46F
  8
0
  6
CONTINUOUS
 62
     7
 10
-0.9897352325
 20
6.6637520715
 30
0.0
  0
VERTEX
  5
470
  8
0
  6
CONTINUOUS
 62
     7
 10
-0.9531913221
 20
6.6681135173
 30
0.0
  0
VERTEX
  5
471
  8
0
  6
CONTINUOUS
 62
     7
 10
-0.9438916745
 20
6.6729497997
 30
0.0
  0
VERTEX
  5
472
  8
0
  6
CONTINUOUS
 62
     7
 10
-0.9366954041
 20
6.6805219619
 30
0.0
  0
VERTEX
  5
473
  8
0
  6
CONTINUOUS
 62
     7
 10
-0.9303027112
 20
6.7003439635
 30
0.0
  0
VERTEX
  5
474
  8
0
  6
CONTINUOUS
 62
     7
 10
-0.9270723149
 20
6.74210169
 30
0.0
  0
VERTEX
  5
475
  8
0
  6
CONTINUOUS
 62
     7
 10
-0.9214820004
 20
6.9095873006
 30
0.0
  0
SEQEND
  5
476
  8
0
  6
CONTINUOUS
 62
     7
  0
POLYLINE
  5
178
  8
0
  6
CONTINUOUS
 62
     7
 66
     1
 10
0.0
 20
0.0
 30
0.0
  0
VERTEX
  5
477
  8
0
  6
CONTINUOUS
 62
     7
 10
-0.7998603788
 20
6.8962849357
 30
0.0
  0
VERTEX
  5
478
  8
0
  6
CONTINUOUS
 62
     7
 10
-0.7943076256
 20
6.7350342637
 30
0.0
  0
VERTEX
  5
479
  8
0
  6
CONTINUOUS
 62
     7
 10
-0.7906457717
 20
6.694893977
 30
0.0
  0
VERTEX
  5
47A
  8
0
  6
CONTINUOUS
 62
     7
 10
-0.7824285255
 20
6.6765611734
 30
0.0
  0
VERTEX
  5
47B
  8
0
  6
CONTINUOUS
 62
     7
 10
-0.7746854539
 20
6.6701593373
 30
0.0
  0
VERTEX
  5
47C
  8
0
  6
CONTINUOUS
 62
     7
 10
-0.7652202343
 20
6.6666641281
 30
0.0
  0
VERTEX
  5
47D
  8
0
  6
CONTINUOUS
 62
     7
 10
-0.7202174353
 20
6.6627961258
 30
0.0
  0
VERTEX
  5
47E
  8
0
  6
CONTINUOUS
 62
     7
 10
-0.6847843653
 20
6.6606430438
 30
0.0
  0
SEQEND
  5
47F
  8
0
  6
CONTINUOUS
 62
     7
  0
POLYLINE
  5
17A
  8
0
  6
CONTINUOUS
 62
     7
 66
     1
 10
0.0
 20
0.0
 30
0.0
  0
VERTEX
  5
480
  8
0
  6
CONTINUOUS
 62
     7
 10
-0.6083485545
 20
7.2146970979
 30
0.0
  0
VERTEX
  5
481
  8
0
  6
CONTINUOUS
 62
     7
 10
-0.6661975913
 20
7.208492818
 30
0.0
  0
VERTEX
  5
482
  8
0
  6
CONTINUOUS
 62
     7
 10
-0.7188663365
 20
7.1840406898
 30
0.0
  0
VERTEX
  5
483
  8
0
  6
CONTINUOUS
 62
     7
 10
-0.7645559457
 20
7.1479241928
 30
0.0
  0
VERTEX
  5
484
  8
0
  6
CONTINUOUS
 62
     7
 10
-0.791362667
 20
7.1110571842
 30
0.0
  0
VERTEX
  5
485
  8
0
  6
CONTINUOUS
 62
     7
 10
-0.7990685497
 20
7.0662551548
 30
0.0
  0
VERTEX
  5
486
  8
0
  6
CONTINUOUS
 62
     7
 10
-0.7998603788
 20
7.0204403411
 30
0.0
  0
SEQEND
  5
487
  8
0
  6
CONTINUOUS
 62
     7
  0
POLYLINE
  5
17B
  8
0
  6
CONTINUOUS
 62
     7
 66
     1
 10
0.0
 20
0.0
 30
0.0
  0
VERTEX
  5
488
  8
0
  6
CONTINUOUS
 62
     7
 10
-0.4485090274
 20
6.9625856114
 30
0.0
  0
VERTEX
  5
489
  8
0
  6
CONTINUOUS
 62
     7
 10
-0.4491058683
 20
7.0203127795
 30
0.0
  0
VERTEX
  5
48A
  8
0
  6
CONTINUOUS
 62
     7
 10
-0.4519433111
 20
7.0779705094
 30
0.0
  0
VERTEX
  5
48B
  8
0
  6
CONTINUOUS
 62
     7
 10
-0.4664329066
 20
7.1335338484
 30
0.0
  0
VERTEX
  5
48C
  8
0
  6
CONTINUOUS
 62
     7
 10
-0.4905567938
 20
7.1693190683
 30
0.0
  0
VERTEX
  5
48D
  8
0
  6
CONTINUOUS
 62
     7
 10
-0.5247901836
 20
7.1955491153
 30
0.0
  0
VERTEX
  5
48E
  8
0
  6
CONTINUOUS
 62
     7
 10
-0.6083485545
 20
7.2146970979
 30
0.0
  0
SEQEND
  5
48F
  8
0
  6
CONTINUOUS
 62
     7
  0
POLYLINE
  5
182
  8
0
  6
CONTINUOUS
 62
     7
 66
     1
 10
0.0
 20
0.0
 30
0.0
  0
VERTEX
  5
490
  8
0
  6
CONTINUOUS
 62
     7
 10
-0.3235090274
 20
6.7546041925
 30
0.0
  0
VERTEX
  5
491
  8
0
  6
CONTINUOUS
 62
     7
 10
-0.3192545169
 20
6.701371203
 30
0.0
  0
VERTEX
  5
492
  8
0
  6
CONTINUOUS
 62
     7
 10
-0.3162709705
 20
6.6876967621
 30
0.0
  0
VERTEX
  5
493
  8
0
  6
CONTINUOUS
 62
     7
 10
-0.310458654
 20
6.675007339
 30
0.0
  0
VERTEX
  5
494
  8
0
  6
CONTINUOUS
 62
     7
 10
-0.2986955563
 20
6.6677087719
 30
0.0
  0
VERTEX
  5
495
  8
0
  6
CONTINUOUS
 62
     7
 10
-0.2572485186
 20
6.6615313083
 30
0.0
  0
VERTEX
  5
496
  8
0
  6
CONTINUOUS
 62
     7
 10
-0.2242691626
 20
6.6606430438
 30
0.0
  0
SEQEND
  5
497
  8
0
  6
CONTINUOUS
 62
     7
  0
POLYLINE
  5
183
  8
0
  6
CONTINUOUS
 62
     7
 66
     1
 10
0.0
 20
0.0
 30
0.0
  0
VERTEX
  5
498
  8
0
  6
CONTINUOUS
 62
     7
 10
-0.3268874058
 20
6.9332359492
 30
0.0
  0
VERTEX
  5
499
  8
0
  6
CONTINUOUS
 62
     7
 10
-0.3250922194
 20
6.8332008598
 30
0.0
  0
VERTEX
  5
49A
  8
0
  6
CONTINUOUS
 62
     7
 10
-0.3235090274
 20
6.7546041925
 30
0.0
  0
SEQEND
  5
49B
  8
0
  6
CONTINUOUS
 62
     7
  0
POLYLINE
  5
187
  8
0
  6
CONTINUOUS
 62
     7
 66
     1
 10
0.0
 20
0.0
 30
0.0
  0
VERTEX
  5
49C
  8
0
  6
CONTINUOUS
 62
     7
 10
-0.7962708518
 20
7.1699335844
 30
0.0
  0
VERTEX
  5
49D
  8
0
  6
CONTINUOUS
 62
     7
 10
-0.7350872398
 20
7.2238402608
 30
0.0
  0
VERTEX
  5
49E
  8
0
  6
CONTINUOUS
 62
     7
 10
-0.6883738923
 20
7.2676954087
 30
0.0
  0
SEQEND
  5
49F
  8
0
  6
CONTINUOUS
 62
     7
  0
POLYLINE
  5
188
  8
0
  6
CONTINUOUS
 62
     7
 66
     1
 10
0.0
 20
0.0
 30
0.0
  0
VERTEX
  5
4A0
  8
0
  6
CONTINUOUS
 62
     7
 10
-0.7863468653
 20
7.3002123006
 30
0.0
  0
VERTEX
  5
4A1
  8
0
  6
CONTINUOUS
 62
     7
 10
-0.7936114371
 20
7.227384329
 30
0.0
  0
VERTEX
  5
4A2
  8
0
  6
CONTINUOUS
 62
     7
 10
-0.7962708518
 20
7.1699335844
 30
0.0
  0
SEQEND
  5
4A3
  8
0
  6
CONTINUOUS
 62
     7
  0
POLYLINE
  5
18A
  8
0
  6
CONTINUOUS
 62
     7
 66
     1
 10
0.0
 20
0.0
 30
0.0
  0
VERTEX
  5
4A4
  8
0
  6
CONTINUOUS
 62
     7
 10
-1.0371914599
 20
7.2552376384
 30
0.0
  0
VERTEX
  5
4A5
  8
0
  6
CONTINUOUS
 62
     7
 10
-0.9025663214
 20
7.2782861886
 30
0.0
  0
VERTEX
  5
4A6
  8
0
  6
CONTINUOUS
 62
     7
 10
-0.7998603788
 20
7.3092916925
 30
0.0
  0
SEQEND
  5
4A7
  8
0
  6
CONTINUOUS
 62
     7
  0
POLYLINE
  5
18E
  8
0
  6
CONTINUOUS
 62
     7
 66
     1
 10
0.0
 20
0.0
 30
0.0
  0
VERTEX
  5
4A8
  8
0
  6
CONTINUOUS
 62
     7
 10
1.2442696888
 20
6.9775771654
 30
0.0
  0
VERTEX
  5
4A9
  8
0
  6
CONTINUOUS
 62
     7
 10
1.1123024617
 20
6.9616138274
 30
0.0
  0
VERTEX
  5
4AA
  8
0
  6
CONTINUOUS
 62
     7
 10
1.0077832023
 20
6.9579403411
 30
0.0
  0
SEQEND
  5
4AB
  8
0
  6
CONTINUOUS
 62
     7
  0
POLYLINE
  5
190
  8
0
  6
CONTINUOUS
 62
     7
 66
     1
 10
0.0
 20
0.0
 30
0.0
  0
VERTEX
  5
4AC
  8
0
  6
CONTINUOUS
 62
     7
 10
1.2541936753
 20
7.029519733
 30
0.0
  0
VERTEX
  5
4AD
  8
0
  6
CONTINUOUS
 62
     7
 10
1.2536460796
 20
7.0052486499
 30
0.0
  0
VERTEX
  5
4AE
  8
0
  6
CONTINUOUS
 62
     7
 10
1.2520821888
 20
6.98623426
 30
0.0
  0
SEQEND
  5
4AF
  8
0
  6
CONTINUOUS
 62
     7
  0
POLYLINE
  5
19D
  8
0
  6
CONTINUOUS
 62
     7
 66
     1
 10
0.0
 20
0.0
 30
0.0
  0
VERTEX
  5
4B0
  8
0
  6
CONTINUOUS
 62
     7
 10
3.550012932
 20
7.4233119627
 30
0.0
  0
VERTEX
  5
4B1
  8
0
  6
CONTINUOUS
 62
     7
 10
3.547583262
 20
7.5073394787
 30
0.0
  0
VERTEX
  5
4B2
  8
0
  6
CONTINUOUS
 62
     7
 10
3.5455460227
 20
7.5292550119
 30
0.0
  0
VERTEX
  5
4B3
  8
0
  6
CONTINUOUS
 62
     7
 10
3.5403744543
 20
7.5506262886
 30
0.0
  0
VERTEX
  5
4B4
  8
0
  6
CONTINUOUS
 62
     7
 10
3.525341777
 20
7.5659342384
 30
0.0
  0
VERTEX
  5
4B5
  8
0
  6
CONTINUOUS
 62
     7
 10
3.493486528
 20
7.574161453
 30
0.0
  0
VERTEX
  5
4B6
  8
0
  6
CONTINUOUS
 62
     7
 10
3.4605993979
 20
7.5771884329
 30
0.0
  0
VERTEX
  5
4B7
  8
0
  6
CONTINUOUS
 62
     7
 10
3.4087544861
 20
7.5795619627
 30
0.0
  0
SEQEND
  5
4B8
  8
0
  6
CONTINUOUS
 62
     7
  0
POLYLINE
  5
1A1
  8
0
  6
CONTINUOUS
 62
     7
 66
     1
 10
0.0
 20
0.0
 30
0.0
  0
VERTEX
  5
4B9
  8
0
  6
CONTINUOUS
 62
     7
 10
3.4087544861
 20
6.6606430438
 30
0.0
  0
VERTEX
  5
4BA
  8
0
  6
CONTINUOUS
 62
     7
 10
3.4446278842
 20
6.662354054
 30
0.0
  0
VERTEX
  5
4BB
  8
0
  6
CONTINUOUS
 62
     7
 10
3.4804560357
 20
6.6648628065
 30
0.0
  0
VERTEX
  5
4BC
  8
0
  6
CONTINUOUS
 62
     7
 10
3.5157930052
 20
6.670990379
 30
0.0
  0
VERTEX
  5
4BD
  8
0
  6
CONTINUOUS
 62
     7
 10
3.5413315555
 20
6.6935949191
 30
0.0
  0
VERTEX
  5
4BE
  8
0
  6
CONTINUOUS
 62
     7
 10
3.5493095957
 20
6.7492826916
 30
0.0
  0
VERTEX
  5
4BF
  8
0
  6
CONTINUOUS
 62
     7
 10
3.550646378
 20
6.8057021654
 30
0.0
  0
SEQEND
  5
4C0
  8
0
  6
CONTINUOUS
 62
     7
  0
POLYLINE
  5
1A9
  8
0
  6
CONTINUOUS
 62
     7
 66
     1
 10
0.0
 20
0.0
 30
0.0
  0
VERTEX
  5
4C1
  8
0
  6
CONTINUOUS
 62
     7
 10
3.6874707023
 20
6.8168930438
 30
0.0
  0
VERTEX
  5
4C2
  8
0
  6
CONTINUOUS
 62
     7
 10
3.6896744193
 20
6.7329420701
 30
0.0
  0
VERTEX
  5
4C3
  8
0
  6
CONTINUOUS
 62
     7
 10
3.6920289751
 20
6.711077514
 30
0.0
  0
VERTEX
  5
4C4
  8
0
  6
CONTINUOUS
 62
     7
 10
3.6978239746
 20
6.6898922587
 30
0.0
  0
VERTEX
  5
4C5
  8
0
  6
CONTINUOUS
 62
     7
 10
3.7130492168
 20
6.6747757925
 30
0.0
  0
VERTEX
  5
4C6
  8
0
  6
CONTINUOUS
 62
     7
 10
3.7705190927
 20
6.6635485374
 30
0.0
  0
VERTEX
  5
4C7
  8
0
  6
CONTINUOUS
 62
     7
 10
3.8293625942
 20
6.6606430438
 30
0.0
  0
SEQEND
  5
4C8
  8
0
  6
CONTINUOUS
 62
     7
  0
POLYLINE
  5
1AD
  8
0
  6
CONTINUOUS
 62
     7
 66
     1
 10
0.0
 20
0.0
 30
0.0
  0
VERTEX
  5
4C9
  8
0
  6
CONTINUOUS
 62
     7
 10
3.8293625942
 20
7.5795619627
 30
0.0
  0
VERTEX
  5
4CA
  8
0
  6
CONTINUOUS
 62
     7
 10
3.7530890205
 20
7.5754876346
 30
0.0
  0
VERTEX
  5
4CB
  8
0
  6
CONTINUOUS
 62
     7
 10
3.7235205893
 20
7.570567134
 30
0.0
  0
VERTEX
  5
4CC
  8
0
  6
CONTINUOUS
 62
     7
 10
3.6996651142
 20
7.553877062
 30
0.0
  0
VERTEX
  5
4CD
  8
0
  6
CONTINUOUS
 62
     7
 10
3.6916953494
 20
7.5250722381
 30
0.0
  0
VERTEX
  5
4CE
  8
0
  6
CONTINUOUS
 62
     7
 10
3.689247367
 20
7.4951588213
 30
0.0
  0
VERTEX
  5
4CF
  8
0
  6
CONTINUOUS
 62
     7
 10
3.6881041482
 20
7.4480163546
 30
0.0
  0
SEQEND
  5
4D0
  8
0
  6
CONTINUOUS
 62
     7
  0
POLYLINE
  5
1B4
  8
0
  6
CONTINUOUS
 62
     7
 66
     1
 10
0.0
 20
0.0
 30
0.0
  0
VERTEX
  5
4D1
  8
0
  6
CONTINUOUS
 62
     7
 10
-3.9755360545
 20
6.9984808817
 30
0.0
  0
VERTEX
  5
4D2
  8
0
  6
CONTINUOUS
 62
     7
 10
-4.0738916302
 20
6.9783995987
 30
0.0
  0
VERTEX
  5
4D3
  8
0
  6
CONTINUOUS
 62
     7
 10
-4.1702148921
 20
6.9503381728
 30
0.0
  0
VERTEX
  5
4D4
  8
0
  6
CONTINUOUS
 62
     7
 10
-4.2152911705
 20
6.9284001
 30
0.0
  0
VERTEX
  5
4D5
  8
0
  6
CONTINUOUS
 62
     7
 10
-4.2495514327
 20
6.8921783052
 30
0.0
  0
VERTEX
  5
4D6
  8
0
  6
CONTINUOUS
 62
     7
 10
-4.2677686027
 20
6.8456432722
 30
0.0
  0
VERTEX
  5
4D7
  8
0
  6
CONTINUOUS
 62
     7
 10
-4.2728333518
 20
6.795778179
 30
0.0
  0
SEQEND
  5
4D8
  8
0
  6
CONTINUOUS
 62
     7
  0
POLYLINE
  5
1B9
  8
0
  6
CONTINUOUS
 62
     7
 66
     1
 10
0.0
 20
0.0
 30
0.0
  0
VERTEX
  5
4D9
  8
0
  6
CONTINUOUS
 62
     7
 10
-2.512487068
 20
7.0119943952
 30
0.0
  0
VERTEX
  5
4DA
  8
0
  6
CONTINUOUS
 62
     7
 10
-2.4467980841
 20
7.0124943768
 30
0.0
  0
VERTEX
  5
4DB
  8
0
  6
CONTINUOUS
 62
     7
 10
-2.395299568
 20
7.0155839222
 30
0.0
  0
SEQEND
  5
4DC
  8
0
  6
CONTINUOUS
 62
     7
  0
POLYLINE
  5
1BA
  8
0
  6
CONTINUOUS
 62
     7
 66
     1
 10
0.0
 20
0.0
 30
0.0
  0
VERTEX
  5
4DD
  8
0
  6
CONTINUOUS
 62
     7
 10
-2.395299568
 20
7.0155839222
 30
0.0
  0
VERTEX
  5
4DE
  8
0
  6
CONTINUOUS
 62
     7
 10
-2.3946768254
 20
7.0300049491
 30
0.0
  0
VERTEX
  5
4DF
  8
0
  6
CONTINUOUS
 62
     7
 10
-2.3944549734
 20
7.0413440573
 30
0.0
  0
SEQEND
  5
4E0
  8
0
  6
CONTINUOUS
 62
     7
  0
POLYLINE
  5
1BB
  8
0
  6
CONTINUOUS
 62
     7
 66
     1
 10
0.0
 20
0.0
 30
0.0
  0
VERTEX
  5
4E1
  8
0
  6
CONTINUOUS
 62
     7
 10
-2.3944549734
 20
7.0413440573
 30
0.0
  0
VERTEX
  5
4E2
  8
0
  6
CONTINUOUS
 62
     7
 10
-2.4030022695
 20
7.1261984146
 30
0.0
  0
VERTEX
  5
4E3
  8
0
  6
CONTINUOUS
 62
     7
 10
-2.4386353659
 20
7.2030269606
 30
0.0
  0
VERTEX
  5
4E4
  8
0
  6
CONTINUOUS
 62
     7
 10
-2.4918530992
 20
7.2429939156
 30
0.0
  0
VERTEX
  5
4E5
  8
0
  6
CONTINUOUS
 62
     7
 10
-2.5574617302
 20
7.2552376384
 30
0.0
  0
SEQEND
  5
4E6
  8
0
  6
CONTINUOUS
 62
     7
  0
POLYLINE
  5
1BC
  8
0
  6
CONTINUOUS
 62
     7
 66
     1
 10
0.0
 20
0.0
 30
0.0
  0
VERTEX
  5
4E7
  8
0
  6
CONTINUOUS
 62
     7
 10
-2.5574617302
 20
7.2552376384
 30
0.0
  0
VERTEX
  5
4E8
  8
0
  6
CONTINUOUS
 62
     7
 10
-2.6184067137
 20
7.2454269064
 30
0.0
  0
VERTEX
  5
4E9
  8
0
  6
CONTINUOUS
 62
     7
 10
-2.670852503
 20
7.2131892142
 30
0.0
  0
VERTEX
  5
4EA
  8
0
  6
CONTINUOUS
 62
     7
 10
-2.7063333769
 20
7.1627292749
 30
0.0
  0
VERTEX
  5
4EB
  8
0
  6
CONTINUOUS
 62
     7
 10
-2.7268734549
 20
7.0928236876
 30
0.0
  0
VERTEX
  5
4EC
  8
0
  6
CONTINUOUS
 62
     7
 10
-2.7322928112
 20
7.0200180438
 30
0.0
  0
SEQEND
  5
4ED
  8
0
  6
CONTINUOUS
 62
     7
  0
POLYLINE
  5
1BD
  8
0
  6
CONTINUOUS
 62
     7
 66
     1
 10
0.0
 20
0.0
 30
0.0
  0
VERTEX
  5
4EE
  8
0
  6
CONTINUOUS
 62
     7
 10
-1.3133738923
 20
6.9984808817
 30
0.0
  0
VERTEX
  5
4EF
  8
0
  6
CONTINUOUS
 62
     7
 10
-1.4117294681
 20
6.9783995987
 30
0.0
  0
VERTEX
  5
4F0
  8
0
  6
CONTINUOUS
 62
     7
 10
-1.50805273
 20
6.9503381728
 30
0.0
  0
VERTEX
  5
4F1
  8
0
  6
CONTINUOUS
 62
     7
 10
-1.5531290083
 20
6.9284001
 30
0.0
  0
VERTEX
  5
4F2
  8
0
  6
CONTINUOUS
 62
     7
 10
-1.5873892706
 20
6.8921783052
 30
0.0
  0
VERTEX
  5
4F3
  8
0
  6
CONTINUOUS
 62
     7
 10
-1.6056064406
 20
6.8456432722
 30
0.0
  0
VERTEX
  5
4F4
  8
0
  6
CONTINUOUS
 62
     7
 10
-1.6106711896
 20
6.795778179
 30
0.0
  0
SEQEND
  5
4F5
  8
0
  6
CONTINUOUS
 62
     7
  0
POLYLINE
  5
1C5
  8
0
  6
CONTINUOUS
 62
     7
 66
     1
 10
0.0
 20
0.0
 30
0.0
  0
VERTEX
  5
4F6
  8
0
  6
CONTINUOUS
 62
     7
 10
0.2138642834
 20
6.6065889898
 30
0.0
  0
VERTEX
  5
4F7
  8
0
  6
CONTINUOUS
 62
     7
 10
0.1554991483
 20
6.6063065667
 30
0.0
  0
VERTEX
  5
4F8
  8
0
  6
CONTINUOUS
 62
     7
 10
0.0971447689
 20
6.6052059221
 30
0.0
  0
VERTEX
  5
4F9
  8
0
  6
CONTINUOUS
 62
     7
 10
0.0422724103
 20
6.5878049459
 30
0.0
  0
VERTEX
  5
4FA
  8
0
  6
CONTINUOUS
 62
     7
 10
0.0068615294
 20
6.5622242584
 30
0.0
  0
VERTEX
  5
4FB
  8
0
  6
CONTINUOUS
 62
     7
 10
-0.0203820961
 20
6.5280842781
 30
0.0
  0
VERTEX
  5
4FC
  8
0
  6
CONTINUOUS
 62
     7
 10
-0.0376778121
 20
6.4879792343
 30
0.0
  0
VERTEX
  5
4FD
  8
0
  6
CONTINUOUS
 62
     7
 10
-0.043103622
 20
6.4446379762
 30
0.0
  0
SEQEND
  5
4FE
  8
0
  6
CONTINUOUS
 62
     7
  0
POLYLINE
  5
1C8
  8
0
  6
CONTINUOUS
 62
     7
 66
     1
 10
0.0
 20
0.0
 30
0.0
  0
VERTEX
  5
4FF
  8
0
  6
CONTINUOUS
 62
     7
 10
0.4433828644
 20
6.47842176
 30
0.0
  0
VERTEX
  5
500
  8
0
  6
CONTINUOUS
 62
     7
 10
0.4387626909
 20
6.5159819553
 30
0.0
  0
VERTEX
  5
501
  8
0
  6
CONTINUOUS
 62
     7
 10
0.4235308395
 20
6.5505660784
 30
0.0
  0
VERTEX
  5
502
  8
0
  6
CONTINUOUS
 62
     7
 10
0.3982489681
 20
6.5786428606
 30
0.0
  0
VERTEX
  5
503
  8
0
  6
CONTINUOUS
 62
     7
 10
0.364752624
 20
6.5959982751
 30
0.0
  0
VERTEX
  5
504
  8
0
  6
CONTINUOUS
 62
     7
 10
0.2896404612
 20
6.6050568426
 30
0.0
  0
VERTEX
  5
505
  8
0
  6
CONTINUOUS
 62
     7
 10
0.2138642834
 20
6.6065889898
 30
0.0
  0
SEQEND
  5
506
  8
0
  6
CONTINUOUS
 62
     7
  0
POLYLINE
  5
1CA
  8
0
  6
CONTINUOUS
 62
     7
 66
     1
 10
0.0
 20
0.0
 30
0.0
  0
VERTEX
  5
507
  8
0
  6
CONTINUOUS
 62
     7
 10
1.0010264455
 20
7.0119943952
 30
0.0
  0
VERTEX
  5
508
  8
0
  6
CONTINUOUS
 62
     7
 10
1.0667154294
 20
7.0124943768
 30
0.0
  0
VERTEX
  5
509
  8
0
  6
CONTINUOUS
 62
     7
 10
1.1182139455
 20
7.0155839222
 30
0.0
  0
SEQEND
  5
50A
  8
0
  6
CONTINUOUS
 62
     7
  0
POLYLINE
  5
1CB
  8
0
  6
CONTINUOUS
 62
     7
 66
     1
 10
0.0
 20
0.0
 30
0.0
  0
VERTEX
  5
50B
  8
0
  6
CONTINUOUS
 62
     7
 10
1.1182139455
 20
7.0155839222
 30
0.0
  0
VERTEX
  5
50C
  8
0
  6
CONTINUOUS
 62
     7
 10
1.1188366881
 20
7.0300049491
 30
0.0
  0
VERTEX
  5
50D
  8
0
  6
CONTINUOUS
 62
     7
 10
1.1190585401
 20
7.0413440573
 30
0.0
  0
SEQEND
  5
50E
  8
0
  6
CONTINUOUS
 62
     7
  0
POLYLINE
  5
1CC
  8
0
  6
CONTINUOUS
 62
     7
 66
     1
 10
0.0
 20
0.0
 30
0.0
  0
VERTEX
  5
50F
  8
0
  6
CONTINUOUS
 62
     7
 10
0.9560517834
 20
7.2552376384
 30
0.0
  0
VERTEX
  5
510
  8
0
  6
CONTINUOUS
 62
     7
 10
0.8951067998
 20
7.2454269064
 30
0.0
  0
VERTEX
  5
511
  8
0
  6
CONTINUOUS
 62
     7
 10
0.8426610106
 20
7.2131892142
 30
0.0
  0
VERTEX
  5
512
  8
0
  6
CONTINUOUS
 62
     7
 10
0.8071801366
 20
7.1627292749
 30
0.0
  0
VERTEX
  5
513
  8
0
  6
CONTINUOUS
 62
     7
 10
0.7866400586
 20
7.0928236876
 30
0.0
  0
VERTEX
  5
514
  8
0
  6
CONTINUOUS
 62
     7
 10
0.7812207023
 20
7.0200180438
 30
0.0
  0
SEQEND
  5
515
  8
0
  6
CONTINUOUS
 62
     7
  0
POLYLINE
  5
1CD
  8
0
  6
CONTINUOUS
 62
     7
 66
     1
 10
0.0
 20
0.0
 30
0.0
  0
VERTEX
  5
516
  8
0
  6
CONTINUOUS
 62
     7
 10
1.1190585401
 20
7.0413440573
 30
0.0
  0
VERTEX
  5
517
  8
0
  6
CONTINUOUS
 62
     7
 10
1.110511244
 20
7.1261984146
 30
0.0
  0
VERTEX
  5
518
  8
0
  6
CONTINUOUS
 62
     7
 10
1.0748781476
 20
7.2030269606
 30
0.0
  0
VERTEX
  5
519
  8
0
  6
CONTINUOUS
 62
     7
 10
1.0216604144
 20
7.2429939156
 30
0.0
  0
VERTEX
  5
51A
  8
0
  6
CONTINUOUS
 62
     7
 10
0.9560517834
 20
7.2552376384
 30
0.0
  0
SEQEND
  5
51B
  8
0
  6
CONTINUOUS
 62
     7
  0
POLYLINE
  5
1CE
  8
0
  6
CONTINUOUS
 62
     7
 66
     1
 10
0.0
 20
0.0
 30
0.0
  0
VERTEX
  5
51C
  8
0
  6
CONTINUOUS
 62
     7
 10
1.9163558374
 20
6.9972139898
 30
0.0
  0
VERTEX
  5
51D
  8
0
  6
CONTINUOUS
 62
     7
 10
1.9262922318
 20
6.8812542181
 30
0.0
  0
VERTEX
  5
51E
  8
0
  6
CONTINUOUS
 62
     7
 10
1.9618127564
 20
6.7706649476
 30
0.0
  0
VERTEX
  5
51F
  8
0
  6
CONTINUOUS
 62
     7
 10
1.9940410318
 20
6.7222179799
 30
0.0
  0
VERTEX
  5
520
  8
0
  6
CONTINUOUS
 62
     7
 10
2.0364272397
 20
6.6824219619
 30
0.0
  0
VERTEX
  5
521
  8
0
  6
CONTINUOUS
 62
     7
 10
2.0880725902
 20
6.6559637418
 30
0.0
  0
VERTEX
  5
522
  8
0
  6
CONTINUOUS
 62
     7
 10
2.1454521212
 20
6.6471295303
 30
0.0
  0
SEQEND
  5
523
  8
0
  6
CONTINUOUS
 62
     7
  0
POLYLINE
  5
1CF
  8
0
  6
CONTINUOUS
 62
     7
 66
     1
 10
0.0
 20
0.0
 30
0.0
  0
VERTEX
  5
524
  8
0
  6
CONTINUOUS
 62
     7
 10
2.1454521212
 20
6.6471295303
 30
0.0
  0
VERTEX
  5
525
  8
0
  6
CONTINUOUS
 62
     7
 10
2.212323549
 20
6.6598796808
 30
0.0
  0
VERTEX
  5
526
  8
0
  6
CONTINUOUS
 62
     7
 10
2.268257162
 20
6.6985819062
 30
0.0
  0
VERTEX
  5
527
  8
0
  6
CONTINUOUS
 62
     7
 10
2.3070550385
 20
6.754596841
 30
0.0
  0
VERTEX
  5
528
  8
0
  6
CONTINUOUS
 62
     7
 10
2.3293975653
 20
6.83192169
 30
0.0
  0
VERTEX
  5
529
  8
0
  6
CONTINUOUS
 62
     7
 10
2.3352747563
 20
6.912332233
 30
0.0
  0
SEQEND
  5
52A
  8
0
  6
CONTINUOUS
 62
     7
  0
POLYLINE
  5
1D0
  8
0
  6
CONTINUOUS
 62
     7
 66
     1
 10
0.0
 20
0.0
 30
0.0
  0
VERTEX
  5
52B
  8
0
  6
CONTINUOUS
 62
     7
 10
2.3352747563
 20
6.912332233
 30
0.0
  0
VERTEX
  5
52C
  8
0
  6
CONTINUOUS
 62
     7
 10
2.3254306858
 20
7.0266922704
 30
0.0
  0
VERTEX
  5
52D
  8
0
  6
CONTINUOUS
 62
     7
 10
2.2899248149
 20
7.1356370126
 30
0.0
  0
VERTEX
  5
52E
  8
0
  6
CONTINUOUS
 62
     7
 10
2.259466619
 20
7.1842841085
 30
0.0
  0
VERTEX
  5
52F
  8
0
  6
CONTINUOUS
 62
     7
 10
2.217853797
 20
7.2236421436
 30
0.0
  0
VERTEX
  5
530
  8
0
  6
CONTINUOUS
 62
     7
 10
2.1659890763
 20
7.2479033921
 30
0.0
  0
VERTEX
  5
531
  8
0
  6
CONTINUOUS
 62
     7
 10
2.1091345536
 20
7.2552376384
 30
0.0
  0
SEQEND
  5
532
  8
0
  6
CONTINUOUS
 62
     7
  0
POLYLINE
  5
1D1
  8
0
  6
CONTINUOUS
 62
     7
 66
     1
 10
0.0
 20
0.0
 30
0.0
  0
VERTEX
  5
533
  8
0
  6
CONTINUOUS
 62
     7
 10
2.1091345536
 20
7.2552376384
 30
0.0
  0
VERTEX
  5
534
  8
0
  6
CONTINUOUS
 62
     7
 10
2.0422886063
 20
7.2444441261
 30
0.0
  0
VERTEX
  5
535
  8
0
  6
CONTINUOUS
 62
     7
 10
1.9849398443
 20
7.208722384
 30
0.0
  0
VERTEX
  5
536
  8
0
  6
CONTINUOUS
 62
     7
 10
1.9458757626
 20
7.1534531884
 30
0.0
  0
VERTEX
  5
537
  8
0
  6
CONTINUOUS
 62
     7
 10
1.9225281862
 20
7.0770468896
 30
0.0
  0
VERTEX
  5
538
  8
0
  6
CONTINUOUS
 62
     7
 10
1.9163558374
 20
6.9972139898
 30
0.0
  0
SEQEND
  5
539
  8
0
  6
CONTINUOUS
 62
     7
  0
LINE
  5
1D2
  8
0
  6
CONTINUOUS
 62
     7
 10
3.8952409726
 20
7.5795619627
 30
0.0
 11
3.8893288104
 21
7.5839960844
 31
0.0
  0
LINE
  5
1D3
  8
0
  6
CONTINUOUS
 62
     7
 10
4.037977459
 20
7.2845873006
 30
0.0
 11
4.0364994185
 21
7.4233119627
 31
0.0
  0
LINE
  5
1D4
  8
0
  6
CONTINUOUS
 62
     7
 10
4.037977459
 20
6.955617706
 30
0.0
 11
4.037977459
 21
7.2845873006
 31
0.0
  0
LINE
  5
1D5
  8
0
  6
CONTINUOUS
 62
     7
 10
4.0371328644
 20
6.8057021654
 30
0.0
 11
4.037977459
 21
6.955617706
 31
0.0
  0
LINE
  5
1D6
  8
0
  6
CONTINUOUS
 62
     7
 10
3.8893288104
 20
6.6568423681
 30
0.0
 11
3.8952409726
 21
6.6606430438
 31
0.0
  0
LINE
  5
1D7
  8
0
  6
CONTINUOUS
 62
     7
 10
3.8893288104
 20
6.6251700708
 30
0.0
 11
3.8893288104
 21
6.6568423681
 31
0.0
  0
LINE
  5
1D8
  8
0
  6
CONTINUOUS
 62
     7
 10
3.8952409726
 20
6.6201025033
 30
0.0
 11
3.8893288104
 21
6.6251700708
 31
0.0
  0
LINE
  5
1D9
  8
0
  6
CONTINUOUS
 62
     7
 10
4.3158490807
 20
6.6201025033
 30
0.0
 11
3.8952409726
 21
6.6201025033
 31
0.0
  0
LINE
  5
1DA
  8
0
  6
CONTINUOUS
 62
     7
 10
4.3217612428
 20
6.6251700708
 30
0.0
 11
4.3158490807
 21
6.6201025033
 31
0.0
  0
LINE
  5
1DB
  8
0
  6
CONTINUOUS
 62
     7
 10
4.3217612428
 20
6.6568423681
 30
0.0
 11
4.3217612428
 21
6.6251700708
 31
0.0
  0
LINE
  5
1DC
  8
0
  6
CONTINUOUS
 62
     7
 10
4.3158490807
 20
6.6606430438
 30
0.0
 11
4.3217612428
 21
6.6568423681
 31
0.0
  0
LINE
  5
1DD
  8
0
  6
CONTINUOUS
 62
     7
 10
4.1731125942
 20
6.955617706
 30
0.0
 11
4.1739571888
 21
6.8168930438
 31
0.0
  0
LINE
  5
1DE
  8
0
  6
CONTINUOUS
 62
     7
 10
4.1731125942
 20
7.2845873006
 30
0.0
 11
4.1731125942
 21
6.955617706
 31
0.0
  0
LINE
  5
1DF
  8
0
  6
CONTINUOUS
 62
     7
 10
4.1745906347
 20
7.4480163546
 30
0.0
 11
4.1731125942
 21
7.2845873006
 31
0.0
  0
LINE
  5
1E0
  8
0
  6
CONTINUOUS
 62
     7
 10
4.3217612428
 20
7.5839960844
 30
0.0
 11
4.3158490807
 21
7.5795619627
 31
0.0
  0
LINE
  5
1E1
  8
0
  6
CONTINUOUS
 62
     7
 10
4.3217612428
 20
7.6156683817
 30
0.0
 11
4.3217612428
 21
7.5839960844
 31
0.0
  0
LINE
  5
1E2
  8
0
  6
CONTINUOUS
 62
     7
 10
4.3158490807
 20
7.6201025033
 30
0.0
 11
4.3217612428
 21
7.6156683817
 31
0.0
  0
LINE
  5
1E3
  8
0
  6
CONTINUOUS
 62
     7
 10
3.8952409726
 20
7.6201025033
 30
0.0
 11
4.3158490807
 21
7.6201025033
 31
0.0
  0
LINE
  5
1E4
  8
0
  6
CONTINUOUS
 62
     7
 10
3.8893288104
 20
7.6156683817
 30
0.0
 11
3.8952409726
 21
7.6201025033
 31
0.0
  0
LINE
  5
1E5
  8
0
  6
CONTINUOUS
 62
     7
 10
3.8893288104
 20
7.5839960844
 30
0.0
 11
3.8893288104
 21
7.6156683817
 31
0.0
  0
LINE
  5
1E6
  8
0
  6
CONTINUOUS
 62
     7
 10
2.9222679996
 20
7.5795619627
 30
0.0
 11
2.9163558374
 21
7.5839960844
 31
0.0
  0
LINE
  5
1E7
  8
0
  6
CONTINUOUS
 62
     7
 10
3.0650044861
 20
7.2845873006
 30
0.0
 11
3.0635264455
 21
7.4233119627
 31
0.0
  0
LINE
  5
1E8
  8
0
  6
CONTINUOUS
 62
     7
 10
3.0650044861
 20
6.955617706
 30
0.0
 11
3.0650044861
 21
7.2845873006
 31
0.0
  0
LINE
  5
1E9
  8
0
  6
CONTINUOUS
 62
     7
 10
3.0641598915
 20
6.8057021654
 30
0.0
 11
3.0650044861
 21
6.955617706
 31
0.0
  0
LINE
  5
1EA
  8
0
  6
CONTINUOUS
 62
     7
 10
2.9163558374
 20
6.6568423681
 30
0.0
 11
2.9222679996
 21
6.6606430438
 31
0.0
  0
LINE
  5
1EB
  8
0
  6
CONTINUOUS
 62
     7
 10
2.9163558374
 20
6.6251700708
 30
0.0
 11
2.9163558374
 21
6.6568423681
 31
0.0
  0
LINE
  5
1EC
  8
0
  6
CONTINUOUS
 62
     7
 10
2.9222679996
 20
6.6201025033
 30
0.0
 11
2.9163558374
 21
6.6251700708
 31
0.0
  0
LINE
  5
1ED
  8
0
  6
CONTINUOUS
 62
     7
 10
3.3428761077
 20
6.6201025033
 30
0.0
 11
2.9222679996
 21
6.6201025033
 31
0.0
  0
LINE
  5
1EE
  8
0
  6
CONTINUOUS
 62
     7
 10
3.3487882698
 20
6.6251700708
 30
0.0
 11
3.3428761077
 21
6.6201025033
 31
0.0
  0
LINE
  5
1EF
  8
0
  6
CONTINUOUS
 62
     7
 10
3.3487882698
 20
6.6568423681
 30
0.0
 11
3.3487882698
 21
6.6251700708
 31
0.0
  0
LINE
  5
1F0
  8
0
  6
CONTINUOUS
 62
     7
 10
3.3428761077
 20
6.6606430438
 30
0.0
 11
3.3487882698
 21
6.6568423681
 31
0.0
  0
LINE
  5
1F1
  8
0
  6
CONTINUOUS
 62
     7
 10
3.2001396212
 20
6.955617706
 30
0.0
 11
3.2009842158
 21
6.8168930438
 31
0.0
  0
LINE
  5
1F2
  8
0
  6
CONTINUOUS
 62
     7
 10
3.2001396212
 20
7.2845873006
 30
0.0
 11
3.2001396212
 21
6.955617706
 31
0.0
  0
LINE
  5
1F3
  8
0
  6
CONTINUOUS
 62
     7
 10
3.2016176617
 20
7.4480163546
 30
0.0
 11
3.2001396212
 21
7.2845873006
 31
0.0
  0
LINE
  5
1F4
  8
0
  6
CONTINUOUS
 62
     7
 10
3.3487882698
 20
7.5839960844
 30
0.0
 11
3.3428761077
 21
7.5795619627
 31
0.0
  0
LINE
  5
1F5
  8
0
  6
CONTINUOUS
 62
     7
 10
3.3487882698
 20
7.6156683817
 30
0.0
 11
3.3487882698
 21
7.5839960844
 31
0.0
  0
LINE
  5
1F6
  8
0
  6
CONTINUOUS
 62
     7
 10
3.3428761077
 20
7.6201025033
 30
0.0
 11
3.3487882698
 21
7.6156683817
 31
0.0
  0
LINE
  5
1F7
  8
0
  6
CONTINUOUS
 62
     7
 10
2.9222679996
 20
7.6201025033
 30
0.0
 11
3.3428761077
 21
7.6201025033
 31
0.0
  0
LINE
  5
1F8
  8
0
  6
CONTINUOUS
 62
     7
 10
2.9163558374
 20
7.6156683817
 30
0.0
 11
2.9222679996
 21
7.6201025033
 31
0.0
  0
LINE
  5
1F9
  8
0
  6
CONTINUOUS
 62
     7
 10
2.9163558374
 20
7.5839960844
 30
0.0
 11
2.9163558374
 21
7.6156683817
 31
0.0
  0
LINE
  5
1FA
  8
0
  6
CONTINUOUS
 62
     7
 10
1.3352747563
 20
7.5856852735
 30
0.0
 11
1.3352747563
 21
7.6139791925
 31
0.0
  0
LINE
  5
1FB
  8
0
  6
CONTINUOUS
 62
     7
 10
1.3416092158
 20
7.5795619627
 30
0.0
 11
1.3352747563
 21
7.5856852735
 31
0.0
  0
LINE
  5
1FC
  8
0
  6
CONTINUOUS
 62
     7
 10
1.456896378
 20
7.2725518276
 30
0.0
 11
1.4541514455
 21
7.4228896654
 31
0.0
  0
LINE
  5
1FD
  8
0
  6
CONTINUOUS
 62
     7
 10
1.456896378
 20
6.9053643276
 30
0.0
 11
1.456896378
 21
7.2725518276
 31
0.0
  0
LINE
  5
1FE
  8
0
  6
CONTINUOUS
 62
     7
 10
1.3352747563
 20
6.655153179
 30
0.0
 11
1.3418203644
 21
6.6606430438
 31
0.0
  0
LINE
  5
1FF
  8
0
  6
CONTINUOUS
 62
     7
 10
1.3352747563
 20
6.6262258141
 30
0.0
 11
1.3352747563
 21
6.655153179
 31
0.0
  0
LINE
  5
200
  8
0
  6
CONTINUOUS
 62
     7
 10
1.3418203644
 20
6.6201025033
 30
0.0
 11
1.3352747563
 21
6.6262258141
 31
0.0
  0
LINE
  5
201
  8
0
  6
CONTINUOUS
 62
     7
 10
1.694227459
 20
6.6201025033
 30
0.0
 11
1.3418203644
 21
6.6201025033
 31
0.0
  0
LINE
  5
202
  8
0
  6
CONTINUOUS
 62
     7
 10
1.7001396212
 20
6.6262258141
 30
0.0
 11
1.694227459
 21
6.6201025033
 31
0.0
  0
LINE
  5
203
  8
0
  6
CONTINUOUS
 62
     7
 10
1.7001396212
 20
6.655153179
 30
0.0
 11
1.7001396212
 21
6.6262258141
 31
0.0
  0
LINE
  5
204
  8
0
  6
CONTINUOUS
 62
     7
 10
1.6935940131
 20
6.6606430438
 30
0.0
 11
1.7001396212
 21
6.655153179
 31
0.0
  0
LINE
  5
205
  8
0
  6
CONTINUOUS
 62
     7
 10
1.5785179996
 20
7.3386413546
 30
0.0
 11
1.5785179996
 21
6.8943845979
 31
0.0
  0
LINE
  5
206
  8
0
  6
CONTINUOUS
 62
     7
 10
1.5785179996
 20
7.6741565573
 30
0.0
 11
1.5920315131
 21
7.6652883141
 31
0.0
  0
LINE
  5
207
  8
0
  6
CONTINUOUS
 62
     7
 10
1.3352747563
 20
7.6139791925
 30
0.0
 11
1.3411869185
 21
7.6201025033
 31
0.0
  0
LINE
  5
208
  8
0
  6
CONTINUOUS
 62
     7
 10
-0.0654853788
 20
6.7687511519
 30
0.0
 11
0.0514909726
 21
6.8557443952
 31
0.0
  0
LINE
  5
209
  8
0
  6
CONTINUOUS
 62
     7
 10
-0.1142607166
 20
6.54873426
 30
0.0
 11
0.0136953644
 21
6.6133457465
 31
0.0
  0
LINE
  5
20A
  8
0
  6
CONTINUOUS
 62
     7
 10
0.1862038104
 20
6.6990720979
 30
0.0
 11
0.3456210401
 21
6.7011835844
 31
0.0
  0
LINE
  5
20B
  8
0
  6
CONTINUOUS
 62
     7
 10
0.1374284726
 20
6.849832233
 30
0.0
 11
0.1055450266
 21
6.849832233
 31
0.0
  0
LINE
  5
20C
  8
0
  6
CONTINUOUS
 62
     7
 10
0.542200432
 20
7.1876700708
 30
0.0
 11
0.410021378
 21
7.1876700708
 31
0.0
  0
LINE
  5
20D
  8
0
  6
CONTINUOUS
 62
     7
 10
0.5728169861
 20
7.2552376384
 30
0.0
 11
0.5785179996
 21
7.2453136519
 31
0.0
  0
LINE
  5
20E
  8
0
  6
CONTINUOUS
 62
     7
 10
0.3675804996
 20
7.2552376384
 30
0.0
 11
0.5728169861
 21
7.2552376384
 31
0.0
  0
LINE
  5
20F
  8
0
  6
CONTINUOUS
 62
     7
 10
-1.3133738923
 20
6.725465679
 30
0.0
 11
-1.4670901085
 21
6.6089116249
 31
0.0
  0
LINE
  5
210
  8
0
  6
CONTINUOUS
 62
     7
 10
-1.3133738923
 20
6.6285484492
 30
0.0
 11
-1.3133738923
 21
6.725465679
 31
0.0
  0
LINE
  5
211
  8
0
  6
CONTINUOUS
 62
     7
 10
-1.3026053112
 20
6.6201025033
 30
0.0
 11
-1.3133738923
 21
6.6285484492
 31
0.0
  0
LINE
  5
212
  8
0
  6
CONTINUOUS
 62
     7
 10
-1.1028586896
 20
6.6201025033
 30
0.0
 11
-1.3026053112
 21
6.6201025033
 31
0.0
  0
LINE
  5
213
  8
0
  6
CONTINUOUS
 62
     7
 10
-1.0971576761
 20
6.6258035168
 30
0.0
 11
-1.1028586896
 21
6.6201025033
 31
0.0
  0
LINE
  5
214
  8
0
  6
CONTINUOUS
 62
     7
 10
-1.0971576761
 20
6.6543085844
 30
0.0
 11
-1.0971576761
 21
6.6258035168
 31
0.0
  0
LINE
  5
215
  8
0
  6
CONTINUOUS
 62
     7
 10
-1.1028586896
 20
6.6606430438
 30
0.0
 11
-1.0971576761
 21
6.6543085844
 31
0.0
  0
LINE
  5
216
  8
0
  6
CONTINUOUS
 62
     7
 10
-1.1429769329
 20
6.6642325708
 30
0.0
 11
-1.1028586896
 21
6.6606430438
 31
0.0
  0
LINE
  5
217
  8
0
  6
CONTINUOUS
 62
     7
 10
-1.1917522707
 20
7.0932866249
 30
0.0
 11
-1.1917522707
 21
6.7351785168
 31
0.0
  0
LINE
  5
218
  8
0
  6
CONTINUOUS
 62
     7
 10
-1.6782387572
 20
7.1209470979
 30
0.0
 11
-1.6782387572
 21
7.2151193952
 31
0.0
  0
LINE
  5
219
  8
0
  6
CONTINUOUS
 62
     7
 10
-1.6725377437
 20
7.1137680438
 30
0.0
 11
-1.6782387572
 21
7.1209470979
 31
0.0
  0
LINE
  5
21A
  8
0
  6
CONTINUOUS
 62
     7
 10
-1.6448772707
 20
7.1065889898
 30
0.0
 11
-1.6725377437
 21
7.1137680438
 31
0.0
  0
LINE
  5
21B
  8
0
  6
CONTINUOUS
 62
     7
 10
-1.6398097031
 20
7.1101785168
 30
0.0
 11
-1.6448772707
 21
7.1065889898
 31
0.0
  0
LINE
  5
21C
  8
0
  6
CONTINUOUS
 62
     7
 10
-2.5057303112
 20
6.9579403411
 30
0.0
 11
-2.7322928112
 21
6.9579403411
 31
0.0
  0
LINE
  5
21D
  8
0
  6
CONTINUOUS
 62
     7
 10
-2.2614313247
 20
6.98623426
 30
0.0
 11
-2.2692438247
 21
6.9775771654
 31
0.0
  0
LINE
  5
21E
  8
0
  6
CONTINUOUS
 62
     7
 10
-2.2863468653
 20
6.7163862871
 30
0.0
 11
-2.3091509193
 21
6.6667663546
 31
0.0
  0
LINE
  5
21F
  8
0
  6
CONTINUOUS
 62
     7
 10
-2.2977488923
 20
6.7282106114
 30
0.0
 11
-2.2863468653
 21
6.7163862871
 31
0.0
  0
LINE
  5
220
  8
0
  6
CONTINUOUS
 62
     7
 10
-3.9755360545
 20
6.725465679
 30
0.0
 11
-4.1292522707
 21
6.6089116249
 31
0.0
  0
LINE
  5
221
  8
0
  6
CONTINUOUS
 62
     7
 10
-3.9755360545
 20
6.6285484492
 30
0.0
 11
-3.9755360545
 21
6.725465679
 31
0.0
  0
LINE
  5
222
  8
0
  6
CONTINUOUS
 62
     7
 10
-3.9647674734
 20
6.6201025033
 30
0.0
 11
-3.9755360545
 21
6.6285484492
 31
0.0
  0
LINE
  5
223
  8
0
  6
CONTINUOUS
 62
     7
 10
-3.7650208518
 20
6.6201025033
 30
0.0
 11
-3.9647674734
 21
6.6201025033
 31
0.0
  0
LINE
  5
224
  8
0
  6
CONTINUOUS
 62
     7
 10
-3.7593198383
 20
6.6258035168
 30
0.0
 11
-3.7650208518
 21
6.6201025033
 31
0.0
  0
LINE
  5
225
  8
0
  6
CONTINUOUS
 62
     7
 10
-3.7593198383
 20
6.6543085844
 30
0.0
 11
-3.7593198383
 21
6.6258035168
 31
0.0
  0
LINE
  5
226
  8
0
  6
CONTINUOUS
 62
     7
 10
-3.7650208518
 20
6.6606430438
 30
0.0
 11
-3.7593198383
 21
6.6543085844
 31
0.0
  0
LINE
  5
227
  8
0
  6
CONTINUOUS
 62
     7
 10
-3.805139095
 20
6.6642325708
 30
0.0
 11
-3.7650208518
 21
6.6606430438
 31
0.0
  0
LINE
  5
228
  8
0
  6
CONTINUOUS
 62
     7
 10
-3.8539144329
 20
7.0932866249
 30
0.0
 11
-3.8539144329
 21
6.7351785168
 31
0.0
  0
LINE
  5
229
  8
0
  6
CONTINUOUS
 62
     7
 10
-4.3404009193
 20
7.1209470979
 30
0.0
 11
-4.3404009193
 21
7.2151193952
 31
0.0
  0
LINE
  5
22A
  8
0
  6
CONTINUOUS
 62
     7
 10
-4.3346999058
 20
7.1137680438
 30
0.0
 11
-4.3404009193
 21
7.1209470979
 31
0.0
  0
LINE
  5
22B
  8
0
  6
CONTINUOUS
 62
     7
 10
-4.3070394329
 20
7.1065889898
 30
0.0
 11
-4.3346999058
 21
7.1137680438
 31
0.0
  0
LINE
  5
22C
  8
0
  6
CONTINUOUS
 62
     7
 10
-4.3019718653
 20
7.1101785168
 30
0.0
 11
-4.3070394329
 21
7.1065889898
 31
0.0
  0
LINE
  5
22D
  8
0
  6
CONTINUOUS
 62
     7
 10
4.0743152948
 20
-4.4831609809
 30
0.0
 11
3.6743152948
 21
-4.4831609809
 31
0.0
  0
LINE
  5
22E
  8
0
  6
CONTINUOUS
 62
     7
 10
4.0743152948
 20
-4.0831609809
 30
0.0
 11
4.0743152948
 21
-4.4831609809
 31
0.0
  0
LINE
  5
22F
  8
0
  6
CONTINUOUS
 62
     7
 10
3.6743152948
 20
-4.0831609809
 30
0.0
 11
4.0743152948
 21
-4.0831609809
 31
0.0
  0
LINE
  5
230
  8
0
  6
CONTINUOUS
 62
     7
 10
3.6743152948
 20
-4.4831609809
 30
0.0
 11
3.6743152948
 21
-4.0831609809
 31
0.0
  0
LINE
  5
231
  8
0
  6
CONTINUOUS
 62
     7
 10
3.7568152948
 20
4.6831584791
 30
0.0
 11
4.0743152948
 21
4.6831584791
 31
0.0
  0
LINE
  5
232
  8
0
  6
CONTINUOUS
 62
     7
 10
3.7568152948
 20
4.2831584791
 30
0.0
 11
3.7568152948
 21
4.6831584791
 31
0.0
  0
LINE
  5
233
  8
0
  6
CONTINUOUS
 62
     7
 10
4.0743152948
 20
4.2831584791
 30
0.0
 11
3.7568152948
 21
4.2831584791
 31
0.0
  0
LINE
  5
234
  8
0
  6
CONTINUOUS
 62
     7
 10
4.0743152948
 20
4.6831584791
 30
0.0
 11
4.0743152948
 21
4.2831584791
 31
0.0
  0
LINE
  5
235
  8
0
  6
CONTINUOUS
 62
     7
 10
2.6455652948
 20
4.3831584791
 30
0.0
 11
-4.1236644307
 21
4.3831584791
 31
0.0
  0
LINE
  5
236
  8
0
  6
CONTINUOUS
 62
     7
 10
2.6455652948
 20
5.5656584791
 30
0.0
 11
2.6455652948
 21
4.3831584791
 31
0.0
  0
LINE
  5
237
  8
0
  6
CONTINUOUS
 62
     7
 10
-3.6236644307
 20
6.0656584791
 30
0.0
 11
2.1455652948
 21
6.0656584791
 31
0.0
  0
LINE
  5
238
  8
0
  6
CONTINUOUS
 62
     7
 10
-4.1236644307
 20
4.3831584791
 30
0.0
 11
-4.1236644307
 21
5.5656584791
 31
0.0
  0
LINE
  5
239
  8
0
  6
CONTINUOUS
 62
     7
 10
-6.6636644307
 20
-3.8656609809
 30
0.0
 11
-8.329799585
 21
-3.8656609809
 31
0.0
  0
LINE
  5
23A
  8
0
  6
CONTINUOUS
 62
     7
 10
-8.329799585
 20
-3.8656609809
 30
0.0
 11
-8.329799585
 21
3.8656584809
 31
0.0
  0
LINE
  5
23B
  8
0
  6
CONTINUOUS
 62
     7
 10
-8.329799585
 20
3.8656584809
 30
0.0
 11
-6.6636644307
 21
3.8656584809
 31
0.0
  0
LINE
  5
23C
  8
0
  6
CONTINUOUS
 62
     7
 10
-6.6636644307
 20
3.8656584809
 30
0.0
 11
-6.6636644307
 21
7.5656584791
 31
0.0
  0
LINE
  5
23D
  8
0
  6
CONTINUOUS
 62
     7
 10
-6.1636644307
 20
8.0656584791
 30
0.0
 11
4.6855652948
 21
8.0656584791
 31
0.0
  0
LINE
  5
23E
  8
0
  6
CONTINUOUS
 62
     7
 10
5.1855652948
 20
7.5656584791
 30
0.0
 11
5.1855652948
 21
3.8656584809
 31
0.0
  0
LINE
  5
23F
  8
0
  6
CONTINUOUS
 62
     7
 10
5.1855652948
 20
3.8656584809
 30
0.0
 11
6.851700449
 21
3.8656584809
 31
0.0
  0
LINE
  5
240
  8
0
  6
CONTINUOUS
 62
     7
 10
6.851700449
 20
3.8656584809
 30
0.0
 11
6.851700449
 21
-3.8656609809
 31
0.0
  0
LINE
  5
241
  8
0
  6
CONTINUOUS
 62
     7
 10
6.851700449
 20
-3.8656609809
 30
0.0
 11
5.1855652948
 21
-3.8656609809
 31
0.0
  0
LINE
  5
242
  8
0
  6
CONTINUOUS
 62
     7
 10
5.1855652948
 20
-3.8656609809
 30
0.0
 11
5.1855652948
 21
-4.6257884561
 31
0.0
  0
LINE
  5
243
  8
0
  6
CONTINUOUS
 62
     7
 10
4.9355652948
 20
-4.8757884561
 30
0.0
 11
2.8955652948
 21
-4.8757884561
 31
0.0
  0
LINE
  5
244
  8
0
  6
CONTINUOUS
 62
     7
 10
2.6455652948
 20
-4.6257884561
 30
0.0
 11
2.6455652948
 21
-3.8656609809
 31
0.0
  0
LINE
  5
245
  8
0
  6
CONTINUOUS
 62
     7
 10
2.6455652948
 20
-3.8656609809
 30
0.0
 11
-4.1236644307
 21
-3.8656609809
 31
0.0
  0
LINE
  5
246
  8
0
  6
CONTINUOUS
 62
     7
 10
-4.1236644307
 20
-3.8656609809
 30
0.0
 11
-4.1236644307
 21
-4.6257884561
 31
0.0
  0
LINE
  5
247
  8
0
  6
CONTINUOUS
 62
     7
 10
-4.3736644307
 20
-4.8757884561
 30
0.0
 11
-6.4136644307
 21
-4.8757884561
 31
0.0
  0
LINE
  5
248
  8
0
  6
CONTINUOUS
 62
     7
 10
-6.6636644307
 20
-4.6257884561
 30
0.0
 11
-6.6636644307
 21
-3.8656609809
 31
0.0
  0
LINE
  5
249
  8
0
  6
CONTINUOUS
 62
     7
 10
-7.3853523326
 20
1.0101549168
 30
0.0
 11
-7.3853523326
 21
2.5046467606
 31
0.0
  0
LINE
  5
24A
  8
0
  6
CONTINUOUS
 62
     7
 10
-5.3322128475
 20
1.0101549168
 30
0.0
 11
-7.3853523326
 21
1.0101549168
 31
0.0
  0
LINE
  5
24B
  8
0
  6
CONTINUOUS
 62
     7
 10
-5.3322128475
 20
-2.6773836061
 30
0.0
 11
-5.3322128475
 21
1.0101549168
 31
0.0
  0
LINE
  5
24C
  8
0
  6
CONTINUOUS
 62
     7
 10
5.35
 20
-2.6773836061
 30
0.0
 11
-5.3322128475
 21
-2.6773836061
 31
0.0
  0
LINE
  5
24D
  8
0
  6
CONTINUOUS
 62
     7
 10
5.35
 20
2.5046467606
 30
0.0
 11
5.35
 21
-2.6773836061
 31
0.0
  0
LINE
  5
24E
  8
0
  6
CONTINUOUS
 62
     7
 10
-7.3853523326
 20
2.5046467606
 30
0.0
 11
5.35
 21
2.5046467606
 31
0.0
  0
LINE
  5
24F
  8
0
  6
CONTINUOUS
 62
     7
 10
-5.2349144307
 20
4.6831584791
 30
0.0
 11
-5.2349144307
 21
4.2831584791
 31
0.0
  0
LINE
  5
250
  8
0
  6
CONTINUOUS
 62
     7
 10
-5.5524144307
 20
4.6831584791
 30
0.0
 11
-5.2349144307
 21
4.6831584791
 31
0.0
  0
LINE
  5
251
  8
0
  6
CONTINUOUS
 62
     7
 10
-5.5524144307
 20
4.2831584791
 30
0.0
 11
-5.5524144307
 21
4.6831584791
 31
0.0
  0
LINE
  5
252
  8
0
  6
CONTINUOUS
 62
     7
 10
-5.2349144307
 20
4.2831584791
 30
0.0
 11
-5.5524144307
 21
4.2831584791
 31
0.0
  0
LINE
  5
253
  8
0
  6
CONTINUOUS
 62
     7
 10
-5.5524144307
 20
-4.4831609809
 30
0.0
 11
-5.5524144307
 21
-4.0831609809
 31
0.0
  0
LINE
  5
254
  8
0
  6
CONTINUOUS
 62
     7
 10
-5.1524144307
 20
-4.4831609809
 30
0.0
 11
-5.5524144307
 21
-4.4831609809
 31
0.0
  0
LINE
  5
255
  8
0
  6
CONTINUOUS
 62
     7
 10
-5.1524144307
 20
-4.0831609809
 30
0.0
 11
-5.1524144307
 21
-4.4831609809
 31
0.0
  0
LINE
  5
256
  8
0
  6
CONTINUOUS
 62
     7
 10
-5.5524144307
 20
-4.0831609809
 30
0.0
 11
-5.1524144307
 21
-4.0831609809
 31
0.0
  0
LINE
  5
257
  8
0
  6
CONTINUOUS
 62
     7
 10
-5.1309414599
 20
6.8194268276
 30
0.0
 11
-4.8974110545
 21
7.3251278411
 31
0.0
  0
LINE
  5
258
  8
0
  6
CONTINUOUS
 62
     7
 10
-5.4010005815
 20
7.3711582465
 30
0.0
 11
-5.1309414599
 21
6.8194268276
 31
0.0
  0
LINE
  5
259
  8
0
  6
CONTINUOUS
 62
     7
 10
-5.7933147707
 20
7.6201025033
 30
0.0
 11
-5.5158654464
 21
7.6201025033
 31
0.0
  0
LINE
  5
25A
  8
0
  6
CONTINUOUS
 62
     7
 10
-5.7998603788
 20
7.6144014898
 30
0.0
 11
-5.7933147707
 21
7.6201025033
 31
0.0
  0
LINE
  5
25B
  8
0
  6
CONTINUOUS
 62
     7
 10
-5.7998603788
 20
7.5846295303
 30
0.0
 11
-5.7998603788
 21
7.6144014898
 31
0.0
  0
LINE
  5
25C
  8
0
  6
CONTINUOUS
 62
     7
 10
-5.7939482166
 20
7.5795619627
 30
0.0
 11
-5.7998603788
 21
7.5846295303
 31
0.0
  0
LINE
  5
25D
  8
0
  6
CONTINUOUS
 62
     7
 10
-5.6512117302
 20
6.9566734492
 30
0.0
 11
-5.6512117302
 21
7.2835315573
 31
0.0
  0
LINE
  5
25E
  8
0
  6
CONTINUOUS
 62
     7
 10
-5.7998603788
 20
6.6549420303
 30
0.0
 11
-5.7939482166
 21
6.6606430438
 31
0.0
  0
LINE
  5
25F
  8
0
  6
CONTINUOUS
 62
     7
 10
-5.7998603788
 20
6.6251700708
 30
0.0
 11
-5.7998603788
 21
6.6549420303
 31
0.0
  0
LINE
  5
260
  8
0
  6
CONTINUOUS
 62
     7
 10
-5.7939482166
 20
6.6201025033
 30
0.0
 11
-5.7998603788
 21
6.6251700708
 31
0.0
  0
LINE
  5
261
  8
0
  6
CONTINUOUS
 62
     7
 10
-5.4417522707
 20
6.6201025033
 30
0.0
 11
-5.7939482166
 21
6.6201025033
 31
0.0
  0
LINE
  5
262
  8
0
  6
CONTINUOUS
 62
     7
 10
-5.4349955139
 20
6.6258035168
 30
0.0
 11
-5.4417522707
 21
6.6201025033
 31
0.0
  0
LINE
  5
263
  8
0
  6
CONTINUOUS
 62
     7
 10
-5.4349955139
 20
6.6555754762
 30
0.0
 11
-5.4349955139
 21
6.6258035168
 31
0.0
  0
LINE
  5
264
  8
0
  6
CONTINUOUS
 62
     7
 10
-5.4409076761
 20
6.6606430438
 30
0.0
 11
-5.4349955139
 21
6.6555754762
 31
0.0
  0
LINE
  5
265
  8
0
  6
CONTINUOUS
 62
     7
 10
-5.5836441626
 20
7.4505501384
 30
0.0
 11
-5.5836441626
 21
6.95498426
 31
0.0
  0
LINE
  5
266
  8
0
  6
CONTINUOUS
 62
     7
 10
-5.2500292977
 20
6.7516481114
 30
0.0
 11
-5.5836441626
 21
7.4505501384
 31
0.0
  0
LINE
  5
267
  8
0
  6
CONTINUOUS
 62
     7
 10
-5.1586019329
 20
6.6065889898
 30
0.0
 11
-5.1858401085
 21
6.6065889898
 31
0.0
  0
LINE
  5
268
  8
0
  6
CONTINUOUS
 62
     7
 10
-4.7593198383
 20
7.4739876384
 30
0.0
 11
-5.0002404464
 21
6.9657528411
 31
0.0
  0
LINE
  5
269
  8
0
  6
CONTINUOUS
 62
     7
 10
-4.7593198383
 20
6.9543508141
 30
0.0
 11
-4.7593198383
 21
7.4739876384
 31
0.0
  0
LINE
  5
26A
  8
0
  6
CONTINUOUS
 62
     7
 10
-4.9079684869
 20
6.6555754762
 30
0.0
 11
-4.9020563247
 21
6.6606430438
 31
0.0
  0
LINE
  5
26B
  8
0
  6
CONTINUOUS
 62
     7
 10
-4.9079684869
 20
6.6251700708
 30
0.0
 11
-4.9079684869
 21
6.6555754762
 31
0.0
  0
LINE
  5
26C
  8
0
  6
CONTINUOUS
 62
     7
 10
-4.9012117302
 20
6.6201025033
 30
0.0
 11
-4.9079684869
 21
6.6251700708
 31
0.0
  0
LINE
  5
26D
  8
0
  6
CONTINUOUS
 62
     7
 10
-4.4822928112
 20
6.6201025033
 30
0.0
 11
-4.9012117302
 21
6.6201025033
 31
0.0
  0
LINE
  5
26E
  8
0
  6
CONTINUOUS
 62
     7
 10
-4.4755360545
 20
6.6251700708
 30
0.0
 11
-4.4822928112
 21
6.6201025033
 31
0.0
  0
LINE
  5
26F
  8
0
  6
CONTINUOUS
 62
     7
 10
-4.4755360545
 20
6.6562089222
 30
0.0
 11
-4.4755360545
 21
6.6251700708
 31
0.0
  0
LINE
  5
270
  8
0
  6
CONTINUOUS
 62
     7
 10
-4.4814482166
 20
6.6606430438
 30
0.0
 11
-4.4755360545
 21
6.6562089222
 31
0.0
  0
LINE
  5
271
  8
0
  6
CONTINUOUS
 62
     7
 10
-4.6241847031
 20
7.2841650033
 30
0.0
 11
-4.6241847031
 21
6.9560400033
 31
0.0
  0
LINE
  5
272
  8
0
  6
CONTINUOUS
 62
     7
 10
-4.4755360545
 20
7.5839960844
 30
0.0
 11
-4.4814482166
 21
7.5795619627
 31
0.0
  0
LINE
  5
273
  8
0
  6
CONTINUOUS
 62
     7
 10
-4.4755360545
 20
7.6150349357
 30
0.0
 11
-4.4755360545
 21
7.5839960844
 31
0.0
  0
LINE
  5
274
  8
0
  6
CONTINUOUS
 62
     7
 10
-4.4822928112
 20
7.6201025033
 30
0.0
 11
-4.4755360545
 21
7.6150349357
 31
0.0
  0
LINE
  5
275
  8
0
  6
CONTINUOUS
 62
     7
 10
-4.7698772707
 20
7.6201025033
 30
0.0
 11
-4.4822928112
 21
7.6201025033
 31
0.0
  0
LINE
  5
276
  8
0
  6
CONTINUOUS
 62
     7
 10
-3.6917522707
 20
7.5856852735
 30
0.0
 11
-3.6917522707
 21
7.6139791925
 31
0.0
  0
LINE
  5
277
  8
0
  6
CONTINUOUS
 62
     7
 10
-3.6854178112
 20
7.5795619627
 30
0.0
 11
-3.6917522707
 21
7.5856852735
 31
0.0
  0
LINE
  5
278
  8
0
  6
CONTINUOUS
 62
     7
 10
-3.5701306491
 20
7.2725518276
 30
0.0
 11
-3.5728755815
 21
7.4228896654
 31
0.0
  0
LINE
  5
279
  8
0
  6
CONTINUOUS
 62
     7
 10
-3.5701306491
 20
6.9053643276
 30
0.0
 11
-3.5701306491
 21
7.2725518276
 31
0.0
  0
LINE
  5
27A
  8
0
  6
CONTINUOUS
 62
     7
 10
-3.6917522707
 20
6.655153179
 30
0.0
 11
-3.6852066626
 21
6.6606430438
 31
0.0
  0
LINE
  5
27B
  8
0
  6
CONTINUOUS
 62
     7
 10
-3.6917522707
 20
6.6262258141
 30
0.0
 11
-3.6917522707
 21
6.655153179
 31
0.0
  0
LINE
  5
27C
  8
0
  6
CONTINUOUS
 62
     7
 10
-3.6852066626
 20
6.6201025033
 30
0.0
 11
-3.6917522707
 21
6.6262258141
 31
0.0
  0
LINE
  5
27D
  8
0
  6
CONTINUOUS
 62
     7
 10
-3.332799568
 20
6.6201025033
 30
0.0
 11
-3.6852066626
 21
6.6201025033
 31
0.0
  0
LINE
  5
27E
  8
0
  6
CONTINUOUS
 62
     7
 10
-3.3268874058
 20
6.6262258141
 30
0.0
 11
-3.332799568
 21
6.6201025033
 31
0.0
  0
LINE
  5
27F
  8
0
  6
CONTINUOUS
 62
     7
 10
-3.3268874058
 20
6.655153179
 30
0.0
 11
-3.3268874058
 21
6.6262258141
 31
0.0
  0
LINE
  5
280
  8
0
  6
CONTINUOUS
 62
     7
 10
-3.3334330139
 20
6.6606430438
 30
0.0
 11
-3.3268874058
 21
6.655153179
 31
0.0
  0
LINE
  5
281
  8
0
  6
CONTINUOUS
 62
     7
 10
-3.4485090274
 20
6.9765214222
 30
0.0
 11
-3.4485090274
 21
6.8929065573
 31
0.0
  0
LINE
  5
282
  8
0
  6
CONTINUOUS
 62
     7
 10
-3.3439904464
 20
6.8804487871
 30
0.0
 11
-3.4485090274
 21
6.9765214222
 31
0.0
  0
LINE
  5
283
  8
0
  6
CONTINUOUS
 62
     7
 10
-3.2031542977
 20
6.7442579087
 30
0.0
 11
-3.2656542977
 21
6.807180206
 31
0.0
  0
LINE
  5
284
  8
0
  6
CONTINUOUS
 62
     7
 10
-3.1505782842
 20
6.6906261519
 30
0.0
 11
-3.2031542977
 21
6.7442579087
 31
0.0
  0
LINE
  5
285
  8
0
  6
CONTINUOUS
 62
     7
 10
-2.9079684869
 20
6.6849251384
 30
0.0
 11
-2.9079684869
 21
6.6526193952
 31
0.0
  0
LINE
  5
286
  8
0
  6
CONTINUOUS
 62
     7
 10
-3.2466509193
 20
7.0844183817
 30
0.0
 11
-3.3184414599
 21
7.0293085844
 31
0.0
  0
LINE
  5
287
  8
0
  6
CONTINUOUS
 62
     7
 10
-2.962022541
 20
7.2486920303
 30
0.0
 11
-2.9679347031
 21
7.2423575708
 31
0.0
  0
LINE
  5
288
  8
0
  6
CONTINUOUS
 62
     7
 10
-2.962022541
 20
7.275930206
 30
0.0
 11
-2.962022541
 21
7.2486920303
 31
0.0
  0
LINE
  5
289
  8
0
  6
CONTINUOUS
 62
     7
 10
-2.9685681491
 20
7.2822646654
 30
0.0
 11
-2.962022541
 21
7.275930206
 31
0.0
  0
LINE
  5
28A
  8
0
  6
CONTINUOUS
 62
     7
 10
-3.1115157842
 20
7.2822646654
 30
0.0
 11
-2.9685681491
 21
7.2822646654
 31
0.0
  0
LINE
  5
28B
  8
0
  6
CONTINUOUS
 62
     7
 10
-3.4485090274
 20
7.3375856114
 30
0.0
 11
-3.4485090274
 21
7.0041818952
 31
0.0
  0
LINE
  5
28C
  8
0
  6
CONTINUOUS
 62
     7
 10
-3.4485090274
 20
7.6741565573
 30
0.0
 11
-3.4349955139
 21
7.6652883141
 31
0.0
  0
LINE
  5
28D
  8
0
  6
CONTINUOUS
 62
     7
 10
-3.6917522707
 20
7.6139791925
 30
0.0
 11
-3.6858401085
 21
7.6201025033
 31
0.0
  0
LINE
  5
28E
  8
0
  6
CONTINUOUS
 62
     7
 10
-2.1782387572
 20
7.5856852735
 30
0.0
 11
-2.1782387572
 21
7.6139791925
 31
0.0
  0
LINE
  5
28F
  8
0
  6
CONTINUOUS
 62
     7
 10
-2.1719042977
 20
7.5795619627
 30
0.0
 11
-2.1782387572
 21
7.5856852735
 31
0.0
  0
LINE
  5
290
  8
0
  6
CONTINUOUS
 62
     7
 10
-2.0566171356
 20
7.2725518276
 30
0.0
 11
-2.059362068
 21
7.4228896654
 31
0.0
  0
LINE
  5
291
  8
0
  6
CONTINUOUS
 62
     7
 10
-2.0566171356
 20
6.9053643276
 30
0.0
 11
-2.0566171356
 21
7.2725518276
 31
0.0
  0
LINE
  5
292
  8
0
  6
CONTINUOUS
 62
     7
 10
-2.1782387572
 20
6.655153179
 30
0.0
 11
-2.1716931491
 21
6.6606430438
 31
0.0
  0
LINE
  5
293
  8
0
  6
CONTINUOUS
 62
     7
 10
-2.1782387572
 20
6.6262258141
 30
0.0
 11
-2.1782387572
 21
6.655153179
 31
0.0
  0
LINE
  5
294
  8
0
  6
CONTINUOUS
 62
     7
 10
-2.1716931491
 20
6.6201025033
 30
0.0
 11
-2.1782387572
 21
6.6262258141
 31
0.0
  0
LINE
  5
295
  8
0
  6
CONTINUOUS
 62
     7
 10
-1.8192860545
 20
6.6201025033
 30
0.0
 11
-2.1716931491
 21
6.6201025033
 31
0.0
  0
LINE
  5
296
  8
0
  6
CONTINUOUS
 62
     7
 10
-1.8133738923
 20
6.6262258141
 30
0.0
 11
-1.8192860545
 21
6.6201025033
 31
0.0
  0
LINE
  5
297
  8
0
  6
CONTINUOUS
 62
     7
 10
-1.8133738923
 20
6.655153179
 30
0.0
 11
-1.8133738923
 21
6.6262258141
 31
0.0
  0
LINE
  5
298
  8
0
  6
CONTINUOUS
 62
     7
 10
-1.8199195004
 20
6.6606430438
 30
0.0
 11
-1.8133738923
 21
6.655153179
 31
0.0
  0
LINE
  5
299
  8
0
  6
CONTINUOUS
 62
     7
 10
-1.9349955139
 20
7.3386413546
 30
0.0
 11
-1.9349955139
 21
6.8943845979
 31
0.0
  0
LINE
  5
29A
  8
0
  6
CONTINUOUS
 62
     7
 10
-1.9349955139
 20
7.6741565573
 30
0.0
 11
-1.9214820004
 21
7.6652883141
 31
0.0
  0
LINE
  5
29B
  8
0
  6
CONTINUOUS
 62
     7
 10
-2.1782387572
 20
7.6139791925
 30
0.0
 11
-2.172326595
 21
7.6201025033
 31
0.0
  0
LINE
  5
29C
  8
0
  6
CONTINUOUS
 62
     7
 10
-1.043103622
 20
7.2201869627
 30
0.0
 11
-1.043103622
 21
7.2497477735
 31
0.0
  0
LINE
  5
29D
  8
0
  6
CONTINUOUS
 62
     7
 10
-1.0367691626
 20
7.2146970979
 30
0.0
 11
-1.043103622
 21
7.2201869627
 31
0.0
  0
LINE
  5
29E
  8
0
  6
CONTINUOUS
 62
     7
 10
-0.977014095
 20
7.2140636519
 30
0.0
 11
-1.0367691626
 21
7.2146970979
 31
0.0
  0
LINE
  5
29F
  8
0
  6
CONTINUOUS
 62
     7
 10
-0.9214820004
 20
6.9095873006
 30
0.0
 11
-0.9214820004
 21
7.0516903411
 31
0.0
  0
LINE
  5
2A0
  8
0
  6
CONTINUOUS
 62
     7
 10
-1.043103622
 20
6.655153179
 30
0.0
 11
-1.0365580139
 21
6.6606430438
 31
0.0
  0
LINE
  5
2A1
  8
0
  6
CONTINUOUS
 62
     7
 10
-1.043103622
 20
6.6262258141
 30
0.0
 11
-1.043103622
 21
6.655153179
 31
0.0
  0
LINE
  5
2A2
  8
0
  6
CONTINUOUS
 62
     7
 10
-1.0365580139
 20
6.6201025033
 30
0.0
 11
-1.043103622
 21
6.6262258141
 31
0.0
  0
LINE
  5
2A3
  8
0
  6
CONTINUOUS
 62
     7
 10
-0.6841509193
 20
6.6201025033
 30
0.0
 11
-1.0365580139
 21
6.6201025033
 31
0.0
  0
LINE
  5
2A4
  8
0
  6
CONTINUOUS
 62
     7
 10
-0.6782387572
 20
6.6262258141
 30
0.0
 11
-0.6841509193
 21
6.6201025033
 31
0.0
  0
LINE
  5
2A5
  8
0
  6
CONTINUOUS
 62
     7
 10
-0.6782387572
 20
6.655153179
 30
0.0
 11
-0.6782387572
 21
6.6262258141
 31
0.0
  0
LINE
  5
2A6
  8
0
  6
CONTINUOUS
 62
     7
 10
-0.6847843653
 20
6.6606430438
 30
0.0
 11
-0.6782387572
 21
6.655153179
 31
0.0
  0
LINE
  5
2A7
  8
0
  6
CONTINUOUS
 62
     7
 10
-0.7998603788
 20
7.0204403411
 30
0.0
 11
-0.7998603788
 21
6.8962849357
 31
0.0
  0
LINE
  5
2A8
  8
0
  6
CONTINUOUS
 62
     7
 10
-0.4485090274
 20
6.6279150033
 30
0.0
 11
-0.4485090274
 21
6.9625856114
 31
0.0
  0
LINE
  5
2A9
  8
0
  6
CONTINUOUS
 62
     7
 10
-0.4402742302
 20
6.6201025033
 30
0.0
 11
-0.4485090274
 21
6.6279150033
 31
0.0
  0
LINE
  5
2AA
  8
0
  6
CONTINUOUS
 62
     7
 10
-0.2242691626
 20
6.6201025033
 30
0.0
 11
-0.4402742302
 21
6.6201025033
 31
0.0
  0
LINE
  5
2AB
  8
0
  6
CONTINUOUS
 62
     7
 10
-0.2187792977
 20
6.6255923681
 30
0.0
 11
-0.2242691626
 21
6.6201025033
 31
0.0
  0
LINE
  5
2AC
  8
0
  6
CONTINUOUS
 62
     7
 10
-0.2187792977
 20
6.655153179
 30
0.0
 11
-0.2187792977
 21
6.6255923681
 31
0.0
  0
LINE
  5
2AD
  8
0
  6
CONTINUOUS
 62
     7
 10
-0.2242691626
 20
6.6606430438
 30
0.0
 11
-0.2187792977
 21
6.655153179
 31
0.0
  0
LINE
  5
2AE
  8
0
  6
CONTINUOUS
 62
     7
 10
-0.3268874058
 20
7.0595028411
 30
0.0
 11
-0.3268874058
 21
6.9332359492
 31
0.0
  0
LINE
  5
2AF
  8
0
  6
CONTINUOUS
 62
     7
 10
-0.7998603788
 20
7.3092916925
 30
0.0
 11
-0.7863468653
 21
7.3002123006
 31
0.0
  0
LINE
  5
2B0
  8
0
  6
CONTINUOUS
 62
     7
 10
-1.043103622
 20
7.2497477735
 30
0.0
 11
-1.0371914599
 21
7.2552376384
 31
0.0
  0
LINE
  5
2B1
  8
0
  6
CONTINUOUS
 62
     7
 10
1.0077832023
 20
6.9579403411
 30
0.0
 11
0.7812207023
 21
6.9579403411
 31
0.0
  0
LINE
  5
2B2
  8
0
  6
CONTINUOUS
 62
     7
 10
1.2520821888
 20
6.98623426
 30
0.0
 11
1.2442696888
 21
6.9775771654
 31
0.0
  0
LINE
  5
2B3
  8
0
  6
CONTINUOUS
 62
     7
 10
1.2271666482
 20
6.7163862871
 30
0.0
 11
1.2043625942
 21
6.6667663546
 31
0.0
  0
LINE
  5
2B4
  8
0
  6
CONTINUOUS
 62
     7
 10
1.2157646212
 20
6.7282106114
 30
0.0
 11
1.2271666482
 21
6.7163862871
 31
0.0
  0
LINE
  5
2B5
  8
0
  6
CONTINUOUS
 62
     7
 10
3.4087544861
 20
7.5795619627
 30
0.0
 11
3.4028423239
 21
7.5839960844
 31
0.0
  0
LINE
  5
2B6
  8
0
  6
CONTINUOUS
 62
     7
 10
3.5514909726
 20
7.2845873006
 30
0.0
 11
3.550012932
 21
7.4233119627
 31
0.0
  0
LINE
  5
2B7
  8
0
  6
CONTINUOUS
 62
     7
 10
3.5514909726
 20
6.955617706
 30
0.0
 11
3.5514909726
 21
7.2845873006
 31
0.0
  0
LINE
  5
2B8
  8
0
  6
CONTINUOUS
 62
     7
 10
3.550646378
 20
6.8057021654
 30
0.0
 11
3.5514909726
 21
6.955617706
 31
0.0
  0
LINE
  5
2B9
  8
0
  6
CONTINUOUS
 62
     7
 10
3.4028423239
 20
6.6568423681
 30
0.0
 11
3.4087544861
 21
6.6606430438
 31
0.0
  0
LINE
  5
2BA
  8
0
  6
CONTINUOUS
 62
     7
 10
3.4028423239
 20
6.6251700708
 30
0.0
 11
3.4028423239
 21
6.6568423681
 31
0.0
  0
LINE
  5
2BB
  8
0
  6
CONTINUOUS
 62
     7
 10
3.4087544861
 20
6.6201025033
 30
0.0
 11
3.4028423239
 21
6.6251700708
 31
0.0
  0
LINE
  5
2BC
  8
0
  6
CONTINUOUS
 62
     7
 10
3.8293625942
 20
6.6201025033
 30
0.0
 11
3.4087544861
 21
6.6201025033
 31
0.0
  0
LINE
  5
2BD
  8
0
  6
CONTINUOUS
 62
     7
 10
3.8352747563
 20
6.6251700708
 30
0.0
 11
3.8293625942
 21
6.6201025033
 31
0.0
  0
LINE
  5
2BE
  8
0
  6
CONTINUOUS
 62
     7
 10
3.8352747563
 20
6.6568423681
 30
0.0
 11
3.8352747563
 21
6.6251700708
 31
0.0
  0
LINE
  5
2BF
  8
0
  6
CONTINUOUS
 62
     7
 10
3.8293625942
 20
6.6606430438
 30
0.0
 11
3.8352747563
 21
6.6568423681
 31
0.0
  0
LINE
  5
2C0
  8
0
  6
CONTINUOUS
 62
     7
 10
3.6866261077
 20
6.955617706
 30
0.0
 11
3.6874707023
 21
6.8168930438
 31
0.0
  0
LINE
  5
2C1
  8
0
  6
CONTINUOUS
 62
     7
 10
3.6866261077
 20
7.2845873006
 30
0.0
 11
3.6866261077
 21
6.955617706
 31
0.0
  0
LINE
  5
2C2
  8
0
  6
CONTINUOUS
 62
     7
 10
3.6881041482
 20
7.4480163546
 30
0.0
 11
3.6866261077
 21
7.2845873006
 31
0.0
  0
LINE
  5
2C3
  8
0
  6
CONTINUOUS
 62
     7
 10
3.8352747563
 20
7.5839960844
 30
0.0
 11
3.8293625942
 21
7.5795619627
 31
0.0
  0
LINE
  5
2C4
  8
0
  6
CONTINUOUS
 62
     7
 10
3.8352747563
 20
7.6156683817
 30
0.0
 11
3.8352747563
 21
7.5839960844
 31
0.0
  0
LINE
  5
2C5
  8
0
  6
CONTINUOUS
 62
     7
 10
3.8293625942
 20
7.6201025033
 30
0.0
 11
3.8352747563
 21
7.6156683817
 31
0.0
  0
LINE
  5
2C6
  8
0
  6
CONTINUOUS
 62
     7
 10
3.4087544861
 20
7.6201025033
 30
0.0
 11
3.8293625942
 21
7.6201025033
 31
0.0
  0
LINE
  5
2C7
  8
0
  6
CONTINUOUS
 62
     7
 10
3.4028423239
 20
7.6156683817
 30
0.0
 11
3.4087544861
 21
7.6201025033
 31
0.0
  0
LINE
  5
2C8
  8
0
  6
CONTINUOUS
 62
     7
 10
3.4028423239
 20
7.5839960844
 30
0.0
 11
3.4028423239
 21
7.6156683817
 31
0.0
  0
LINE
  5
2C9
  8
0
  6
CONTINUOUS
 62
     7
 10
-3.9755360545
 20
6.7839538546
 30
0.0
 11
-3.9755360545
 21
6.9984808817
 31
0.0
  0
LINE
  5
2CA
  8
0
  6
CONTINUOUS
 62
     7
 10
-1.3133738923
 20
6.7839538546
 30
0.0
 11
-1.3133738923
 21
6.9984808817
 31
0.0
  0
ARC
  5
2CB
  8
0
  6
CONTINUOUS
 62
     7
 10
0.0721916191
 20
7.0510356498
 30
0.0
 40
0.1963853123558081
 50
180.5482370879
 51
263.9493076771
  0
ARC
  5
2CC
  8
0
  6
CONTINUOUS
 62
     7
 10
0.1072209918
 20
6.4728378496
 30
0.0
 40
0.2616773458481171
 50
189.0320538271
 51
279.4305608962
  0
ARC
  5
2CD
  8
0
  6
CONTINUOUS
 62
     7
 10
0.1898777573
 20
6.577116316
 30
0.0
 40
0.3645958957545218
 50
263.7360959307
 51
352.6661566569
  0
ARC
  5
2CE
  8
0
  6
CONTINUOUS
 62
     7
 10
0.3759082892
 20
6.5282167528
 30
0.0
 40
0.175598525811808
 50
0.7696474727
 51
99.9320479977
  0
ARC
  5
2CF
  8
0
  6
CONTINUOUS
 62
     7
 10
0.1613226487
 20
6.7375286748
 30
0.0
 40
0.1253923135794672
 50
116.4121358351
 51
169.6326714596
  0
ARC
  5
2D0
  8
0
  6
CONTINUOUS
 62
     7
 10
0.1556845401
 20
7.1240643576
 30
0.0
 40
0.2748391205369852
 50
266.1913487982
 51
356.0456397084
  0
ARC
  5
2D1
  8
0
  6
CONTINUOUS
 62
     7
 10
-1.4839977815
 20
7.0685832369
 30
0.0
 40
0.1731658524213799
 50
350.1706718015
 51
90.9729105117
  0
ARC
  5
2D2
  8
0
  6
CONTINUOUS
 62
     7
 10
-1.5672207507
 20
6.7576249328
 30
0.0
 40
0.16527412477304
 50
177.1664935954
 51
275.3673955986
  0
ARC
  5
2D3
  8
0
  6
CONTINUOUS
 62
     7
 10
-1.4049670144
 20
7.0976257121
 30
0.0
 40
0.2132588910580873
 50
358.834146884
 51
97.007296158
  0
ARC
  5
2D4
  8
0
  6
CONTINUOUS
 62
     7
 10
-1.4132603157
 20
6.8910801785
 30
0.0
 40
0.418586894683494
 50
92.4266841592
 51
129.2740930259
  0
ARC
  5
2D5
  8
0
  6
CONTINUOUS
 62
     7
 10
-2.474176672
 20
6.9211022126
 30
0.0
 40
0.2607316418541958
 50
171.8776433453
 51
267.3803672636
  0
ARC
  5
2D6
  8
0
  6
CONTINUOUS
 62
     7
 10
-2.5191967604
 20
7.04877543
 30
0.0
 40
0.2605893254670069
 50
355.7623872494
 51
91.3568072921
  0
ARC
  5
2D7
  8
0
  6
CONTINUOUS
 62
     7
 10
-2.5200052274
 20
6.9610656433
 30
0.0
 40
0.3482673274727128
 50
90.8821581125
 51
183.9911383811
  0
ARC
  5
2D8
  8
0
  6
CONTINUOUS
 62
     7
 10
-2.548836968
 20
6.9124719181
 30
0.0
 40
0.319520433293852
 50
175.6287281895
 51
271.5962403156
  0
ARC
  5
2D9
  8
0
  6
CONTINUOUS
 62
     7
 10
-2.5463438199
 20
7.0113752975
 30
0.0
 40
0.418348892197161
 50
270.8775759191
 51
304.5394746281
  0
ARC
  5
2DA
  8
0
  6
CONTINUOUS
 62
     7
 10
-2.5014203852
 20
6.9996558353
 30
0.0
 40
0.3393590820625544
 50
272.5886014371
 51
306.881726239
  0
ARC
  5
2DB
  8
0
  6
CONTINUOUS
 62
     7
 10
-4.1461599436
 20
7.0685832369
 30
0.0
 40
0.1731658524213781
 50
350.1706718015
 51
90.9729105117
  0
ARC
  5
2DC
  8
0
  6
CONTINUOUS
 62
     7
 10
-4.2293829129
 20
6.7576249328
 30
0.0
 40
0.1652741247730387
 50
177.1664935954
 51
275.3673955986
  0
ARC
  5
2DD
  8
0
  6
CONTINUOUS
 62
     7
 10
-4.0671291766
 20
7.0976257121
 30
0.0
 40
0.2132588910580887
 50
358.834146884
 51
97.007296158
  0
ARC
  5
2DE
  8
0
  6
CONTINUOUS
 62
     7
 10
-4.0754224778
 20
6.8910801785
 30
0.0
 40
0.4185868946835049
 50
92.4266841592
 51
129.2740930259
  0
ARC
  5
2DF
  8
0
  6
CONTINUOUS
 62
     7
 10
2.1455652948
 20
5.5656584791
 30
0.0
 40
0.5000000000000009
 50
0.0
 51
90.0
  0
ARC
  5
2E0
  8
0
  6
CONTINUOUS
 62
     7
 10
-3.6236644307
 20
5.5656584791
 30
0.0
 40
0.5000000000000013
 50
90.0
 51
180.0
  0
ARC
  5
2E1
  8
0
  6
CONTINUOUS
 62
     7
 10
-6.1636644307
 20
7.5656584791
 30
0.0
 40
0.5
 50
90.0
 51
180.0
  0
ARC
  5
2E2
  8
0
  6
CONTINUOUS
 62
     7
 10
4.6855652948
 20
7.5656584791
 30
0.0
 40
0.5000000000000009
 50
0.0
 51
90.0
  0
ARC
  5
2E3
  8
0
  6
CONTINUOUS
 62
     7
 10
4.9355652948
 20
-4.6257884561
 30
0.0
 40
0.2499999999999991
 50
270.0
 51
0.0
  0
ARC
  5
2E4
  8
0
  6
CONTINUOUS
 62
     7
 10
2.8955652948
 20
-4.6257884561
 30
0.0
 40
0.2500000000000009
 50
180.0
 51
270.0
  0
ARC
  5
2E5
  8
0
  6
CONTINUOUS
 62
     7
 10
-4.3736644307
 20
-4.6257884561
 30
0.0
 40
0.2500000000000009
 50
270.0
 51
0.0
  0
ARC
  5
2E6
  8
0
  6
CONTINUOUS
 62
     7
 10
-6.4136644307
 20
-4.6257884561
 30
0.0
 40
0.2499999999999991
 50
180.0
 51
270.0
  0
ARC
  5
2E7
  8
0
  6
CONTINUOUS
 62
     7
 10
-2.8126660259
 20
6.6434583551
 30
0.0
 40
0.618699145606329
 50
104.5343215277
 51
134.5432429914
  0
ARC
  5
2E8
  8
0
  6
CONTINUOUS
 62
     7
 10
-4.752507832
 20
8.927659651
 30
0.0
 40
2.323828642396649
 50
304.1348398685
 51
314.923238013
  0
ARC
  5
2E9
  8
0
  6
CONTINUOUS
 62
     7
 10
-0.5446347799
 20
7.0896679721
 30
0.0
 40
0.2198268729180329
 50
352.1128603353
 51
92.4634391146
  0
ARC
  5
2EA
  8
0
  6
CONTINUOUS
 62
     7
 10
-0.5674383493
 20
7.1148356142
 30
0.0
 40
0.1949141409103176
 50
86.071167704
 51
128.3494022278
  0
ARC
  5
2EB
  8
0
  6
CONTINUOUS
 62
     7
 10
1.0393368415
 20
6.9211022126
 30
0.0
 40
0.2607316418541998
 50
171.8776433453
 51
267.3803672636
  0
ARC
  5
2EC
  8
0
  6
CONTINUOUS
 62
     7
 10
0.9943167531
 20
7.04877543
 30
0.0
 40
0.2605893254670044
 50
355.7623872494
 51
91.3568072921
  0
ARC
  5
2ED
  8
0
  6
CONTINUOUS
 62
     7
 10
0.9935082862
 20
6.9610656433
 30
0.0
 40
0.3482673274727111
 50
90.8821581125
 51
183.9911383811
  0
ARC
  5
2EE
  8
0
  6
CONTINUOUS
 62
     7
 10
0.9646765455
 20
6.9124719181
 30
0.0
 40
0.3195204332938514
 50
175.6287281895
 51
271.5962403156
  0
ARC
  5
2EF
  8
0
  6
CONTINUOUS
 62
     7
 10
0.9671696936
 20
7.0113752975
 30
0.0
 40
0.4183488921971834
 50
270.8775759191
 51
304.5394746281
  0
ARC
  5
2F0
  8
0
  6
CONTINUOUS
 62
     7
 10
1.0120931283
 20
6.9996558353
 30
0.0
 40
0.3393590820625959
 50
272.5886014371
 51
306.881726239
  0
ARC
  5
2F1
  8
0
  6
CONTINUOUS
 62
     7
 10
2.1468099188
 20
6.9854363576
 30
0.0
 40
0.3239792342724158
 50
357.2273767257
 51
91.5846289391
  0
ARC
  5
2F2
  8
0
  6
CONTINUOUS
 62
     7
 10
2.1291040558
 20
6.9613242835
 30
0.0
 40
0.3480773229233946
 50
88.5600826998
 51
181.9128750587
  0
ARC
  5
2F3
  8
0
  6
CONTINUOUS
 62
     7
 10
2.1182201436
 20
6.9304587483
 30
0.0
 40
0.3375486077171443
 50
176.7312601779
 51
268.2066278196
  0
ARC
  5
2F4
  8
0
  6
CONTINUOUS
 62
     7
 10
2.1078947509
 20
6.9558572119
 30
0.0
 40
0.362781813825837
 50
269.9623740258
 51
2.1970056595
  0
ARC
  5
2F5
  8
0
  6
CONTINUOUS
 62
     7
 10
-4.1689836075
 20
6.7791379451
 30
0.0
 40
0.105174458718981
 50
170.8966650136
 51
273.472221618
  0
ARC
  5
2F6
  8
0
  6
CONTINUOUS
 62
     7
 10
-4.1844640573
 20
6.9256605679
 30
0.0
 40
0.2524513873077558
 50
274.9653059512
 51
325.8526741041
  0
ARC
  5
2F7
  8
0
  6
CONTINUOUS
 62
     7
 10
-2.487652461
 20
10.7071039883
 30
0.0
 40
3.695193048159612
 50
266.2039549234
 51
269.6149243466
  0
ARC
  5
2F8
  8
0
  6
CONTINUOUS
 62
     7
 10
-1.5068214453
 20
6.7791379451
 30
0.0
 40
0.1051744587189808
 50
170.8966650136
 51
273.472221618
  0
ARC
  5
2F9
  8
0
  6
CONTINUOUS
 62
     7
 10
-1.5223018951
 20
6.9256605679
 30
0.0
 40
0.2524513873077687
 50
274.9653059512
 51
325.8526741041
  0
ARC
  5
2FA
  8
0
  6
CONTINUOUS
 62
     7
 10
0.1626155036
 20
7.0703068899
 30
0.0
 40
0.1666272078416733
 50
172.4393791283
 51
267.1464864361
  0
ARC
  5
2FB
  8
0
  6
CONTINUOUS
 62
     7
 10
0.1591066986
 20
7.0537115205
 30
0.0
 40
0.149901666368361
 50
268.1702447229
 51
5.7743958202
  0
ARC
  5
2FC
  8
0
  6
CONTINUOUS
 62
     7
 10
0.1406516579
 20
7.0868591081
 30
0.0
 40
0.1685669410463347
 50
353.8476567389
 51
87.2907775374
  0
ARC
  5
2FD
  8
0
  6
CONTINUOUS
 62
     7
 10
0.14506857
 20
7.1069195558
 30
0.0
 40
0.1483605799286638
 50
88.6285832245
 51
185.681968017
  0
ARC
  5
2FE
  8
0
  6
CONTINUOUS
 62
     7
 10
0.1516337815
 20
6.4624311561
 30
0.0
 40
0.1955485965087215
 50
185.220626307
 51
277.9270937416
  0
ARC
  5
2FF
  8
0
  6
CONTINUOUS
 62
     7
 10
0.2052173969
 20
6.5071636786
 30
0.0
 40
0.2398934926118427
 50
263.630217436
 51
353.1187955564
  0
ARC
  5
300
  8
0
  6
CONTINUOUS
 62
     7
 10
1.0258610525
 20
10.7071039883
 30
0.0
 40
3.695193048162102
 50
266.2039549234
 51
269.6149243466
  0
ENDSEC
  0
EOF
